<?xml version="1.0" encoding="UTF-8" standalone="no"?>
<svg
   xmlns:dc="http://purl.org/dc/elements/1.1/"
   xmlns:cc="http://creativecommons.org/ns#"
   xmlns:rdf="http://www.w3.org/1999/02/22-rdf-syntax-ns#"
   xmlns:svg="http://www.w3.org/2000/svg"
   xmlns="http://www.w3.org/2000/svg"
   xmlns:sodipodi="http://sodipodi.sourceforge.net/DTD/sodipodi-0.dtd"
   xmlns:inkscape="http://www.inkscape.org/namespaces/inkscape"
   width="467.516pt"
   version="1.1"
   height="520.732pt"
   viewBox="0 0 467.516 520.732"
   id="svg3372"
   inkscape:version="0.48.4 r9939"
   sodipodi:docname="TV Alhijrah Emboss-page001.svg">
  <metadata
     id="metadata3757">
    <rdf:RDF>
      <cc:Work
         rdf:about="">
        <dc:format>image/svg+xml</dc:format>
        <dc:type
           rdf:resource="http://purl.org/dc/dcmitype/StillImage" />
        <dc:title>TV Alhijrah Logo</dc:title>
      </cc:Work>
    </rdf:RDF>
  </metadata>
  <sodipodi:namedview
     pagecolor="#ffffff"
     bordercolor="#666666"
     borderopacity="1"
     objecttolerance="10"
     gridtolerance="10"
     guidetolerance="10"
     inkscape:pageopacity="0"
     inkscape:pageshadow="2"
     inkscape:window-width="1024"
     inkscape:window-height="538"
     id="namedview3755"
     showgrid="false"
     inkscape:zoom="0.36256655"
     inkscape:cx="292.19751"
     inkscape:cy="325.45749"
     inkscape:window-x="-8"
     inkscape:window-y="-8"
     inkscape:window-maximized="1"
     inkscape:current-layer="svg3372" />
  <title
     id="title3374">TV Alhijrah Logo</title>
  <defs
     id="defs3376">
    <clipPath
       id="Clip0">
      <path
         d="M0 0 L258.564 0 L258.564 404.439 L0 404.439 L0 0 Z"
         transform="translate(102.387, 21.0014)"
         id="path3379" />
    </clipPath>
    <clipPath
       id="Clip1">
      <path
         d="M0 0 L258.564 0 L258.564 404.439 L0 404.439 L0 0 Z"
         transform="translate(102.387, 21.0014)"
         id="path3382" />
    </clipPath>
    <linearGradient
       id="Grad0"
       y1="363.327"
       x1="-2.0005"
       y2="-5e-06"
       gradientUnits="userSpaceOnUse"
       x2="0" />
    <linearGradient
       id="Grad1"
       y1="0"
       x1="72.0293"
       y2="3e-06"
       gradientUnits="userSpaceOnUse"
       x2="0" />
    <linearGradient
       id="Grad2"
       y1="0.1665"
       x1="108.993"
       y2="5e-06"
       gradientUnits="userSpaceOnUse"
       x2="0" />
    <linearGradient
       id="Grad3"
       y1="12.6953"
       x1="-2"
       y2="-1e-06"
       gradientUnits="userSpaceOnUse"
       x2="0" />
    <linearGradient
       id="Grad4"
       y1="-2"
       x1="0"
       y2="0"
       gradientUnits="userSpaceOnUse"
       x2="124.852" />
    <linearGradient
       id="Grad5"
       y1="0"
       x1="22.8555"
       y2="1e-06"
       gradientUnits="userSpaceOnUse"
       x2="0" />
    <linearGradient
       id="Grad6"
       y1="-2"
       x1="0.8067"
       y2="0"
       gradientUnits="userSpaceOnUse"
       x2="15.209" />
    <linearGradient
       id="Grad7"
       y1="33.166"
       x1="-2"
       y2="-1e-06"
       gradientUnits="userSpaceOnUse"
       x2="0" />
    <linearGradient
       id="Grad8"
       y1="0"
       x1="22.1455"
       y2="1e-06"
       gradientUnits="userSpaceOnUse"
       x2="0" />
    <linearGradient
       id="Grad9"
       y1="0.9346"
       x1="10.1738"
       y2="1e-06"
       gradientUnits="userSpaceOnUse"
       x2="0" />
    <linearGradient
       id="Grad10"
       y1="0"
       x1="24.1826"
       y2="1e-06"
       gradientUnits="userSpaceOnUse"
       x2="0" />
    <linearGradient
       id="Grad11"
       y1="0"
       x1="20.6474"
       y2="1e-06"
       gradientUnits="userSpaceOnUse"
       x2="0" />
    <linearGradient
       id="Grad12"
       y1="76.017"
       x1="-2.0005"
       y2="-3e-06"
       gradientUnits="userSpaceOnUse"
       x2="0" />
    <linearGradient
       id="Grad13"
       y1="164.701"
       x1="-2.0005"
       y2="-4e-06"
       gradientUnits="userSpaceOnUse"
       x2="0" />
    <linearGradient
       id="Grad14"
       y1="-2"
       x1="1.1035"
       y2="0"
       gradientUnits="userSpaceOnUse"
       x2="21.6836" />
    <linearGradient
       id="Grad15"
       y1="0"
       x1="20.9638"
       y2="1e-06"
       gradientUnits="userSpaceOnUse"
       x2="0" />
    <linearGradient
       id="Grad16"
       y1="0"
       x1="20.5556"
       y2="1e-06"
       gradientUnits="userSpaceOnUse"
       x2="0" />
    <linearGradient
       id="Grad17"
       y1="0"
       x1="31.7304"
       y2="1e-06"
       gradientUnits="userSpaceOnUse"
       x2="0" />
    <linearGradient
       id="Grad18"
       y1="0"
       x1="27.1777"
       y2="1e-06"
       gradientUnits="userSpaceOnUse"
       x2="0" />
    <linearGradient
       id="Grad19"
       y1="19.2046"
       x1="-2"
       y2="-1e-06"
       gradientUnits="userSpaceOnUse"
       x2="0" />
    <linearGradient
       id="Grad20"
       y1="220.165"
       x1="-2.0005"
       y2="-3e-06"
       gradientUnits="userSpaceOnUse"
       x2="0" />
    <linearGradient
       id="Grad21"
       y1="0.4326"
       x1="39.9507"
       y2="2e-06"
       gradientUnits="userSpaceOnUse"
       x2="0" />
    <linearGradient
       id="Grad22"
       y1="0.0616"
       x1="16.0474"
       y2="1e-06"
       gradientUnits="userSpaceOnUse"
       x2="0" />
    <linearGradient
       id="Grad23"
       y1="0.9052"
       x1="13.3842"
       y2="1e-06"
       gradientUnits="userSpaceOnUse"
       x2="0" />
    <linearGradient
       id="Grad24"
       y1="0"
       x1="84.9722"
       y2="4e-06"
       gradientUnits="userSpaceOnUse"
       x2="0" />
    <linearGradient
       id="Grad25"
       y1="309.79"
       x1="-2"
       y2="-5e-06"
       gradientUnits="userSpaceOnUse"
       x2="0" />
    <linearGradient
       id="Grad26"
       y1="-2"
       x1="0.7852"
       y2="0"
       gradientUnits="userSpaceOnUse"
       x2="76.29" />
    <linearGradient
       id="Grad27"
       y1="0"
       x1="16.9346"
       y2="1e-06"
       gradientUnits="userSpaceOnUse"
       x2="0" />
    <linearGradient
       id="Grad28"
       y1="0"
       x1="32.209"
       y2="1e-06"
       gradientUnits="userSpaceOnUse"
       x2="0" />
    <linearGradient
       id="Grad29"
       y1="0"
       x1="20.168"
       y2="1e-06"
       gradientUnits="userSpaceOnUse"
       x2="0" />
    <linearGradient
       id="Grad30"
       y1="92.457"
       x1="-2"
       y2="-2e-06"
       gradientUnits="userSpaceOnUse"
       x2="0" />
    <linearGradient
       id="Grad31"
       y1="-2"
       x1="1.835"
       y2="0"
       gradientUnits="userSpaceOnUse"
       x2="27.3711" />
    <linearGradient
       id="Grad32"
       y1="-2"
       x1="0.543"
       y2="0"
       gradientUnits="userSpaceOnUse"
       x2="25.7866" />
    <linearGradient
       id="Grad33"
       y1="116.863"
       x1="-2"
       y2="-2e-06"
       gradientUnits="userSpaceOnUse"
       x2="0" />
    <clipPath
       id="Clip2">
      <path
         d="M0 0 L353.931 0 L353.931 47.6065 L0 47.6065 L0 0 Z"
         transform="translate(56.7929, 452.492)"
         id="path3419" />
    </clipPath>
    <clipPath
       id="Clip3">
      <path
         d="M0 0 L353.927 0 L353.927 47.6065 L0 47.6065 L0 0 Z"
         transform="translate(56.7973, 452.492)"
         id="path3422" />
    </clipPath>
    <clipPath
       id="Clip4">
      <path
         d="M0 0 L73.4112 0 L73.4112 38.5 L0 38.5 L0 0 Z"
         transform="translate(56.7973, 452.492)"
         id="path3425" />
    </clipPath>
    <linearGradient
       id="Grad34"
       y1="-2"
       x1="0.2959"
       y2="0"
       gradientUnits="userSpaceOnUse"
       x2="6.42773" />
    <linearGradient
       id="Grad35"
       y1="-2"
       x1="0.1074"
       y2="0"
       gradientUnits="userSpaceOnUse"
       x2="5.75098" />
    <linearGradient
       id="Grad36"
       y1="-2"
       x1="0.336"
       y2="0"
       gradientUnits="userSpaceOnUse"
       x2="5.19043" />
    <linearGradient
       id="Grad37"
       y1="-2"
       x1="0"
       y2="0"
       gradientUnits="userSpaceOnUse"
       x2="12.1709" />
    <linearGradient
       id="Grad38"
       y1="-2"
       x1="0.4082"
       y2="0"
       gradientUnits="userSpaceOnUse"
       x2="2.35547" />
    <linearGradient
       id="Grad39"
       y1="-2"
       x1="0"
       y2="0"
       gradientUnits="userSpaceOnUse"
       x2="10.7285" />
    <linearGradient
       id="Grad40"
       y1="-2"
       x1="0.4375"
       y2="0"
       gradientUnits="userSpaceOnUse"
       x2="3.64648" />
    <linearGradient
       id="Grad41"
       y1="-2"
       x1="0"
       y2="0"
       gradientUnits="userSpaceOnUse"
       x2="11.7246" />
    <linearGradient
       id="Grad42"
       y1="-2"
       x1="0.0449"
       y2="0"
       gradientUnits="userSpaceOnUse"
       x2="0.889648" />
    <linearGradient
       id="Grad43"
       y1="-2"
       x1="5.68434e-14"
       y2="0"
       gradientUnits="userSpaceOnUse"
       x2="0.825195" />
    <linearGradient
       id="Grad44"
       y1="-2"
       x1="0.0684"
       y2="0"
       gradientUnits="userSpaceOnUse"
       x2="5.40332" />
    <linearGradient
       id="Grad45"
       y1="-2"
       x1="0.6357"
       y2="0"
       gradientUnits="userSpaceOnUse"
       x2="3.73291" />
    <linearGradient
       id="Grad46"
       y1="-2"
       x1="0.6123"
       y2="0"
       gradientUnits="userSpaceOnUse"
       x2="8.26367" />
    <linearGradient
       id="Grad47"
       y1="-2"
       x1="0.0586"
       y2="0"
       gradientUnits="userSpaceOnUse"
       x2="0.945313" />
    <linearGradient
       id="Grad48"
       y1="-2"
       x1="0"
       y2="0"
       gradientUnits="userSpaceOnUse"
       x2="16.1245" />
    <linearGradient
       id="Grad49"
       y1="-2"
       x1="0.2779"
       y2="0"
       gradientUnits="userSpaceOnUse"
       x2="4.83301" />
    <linearGradient
       id="Grad50"
       y1="-2"
       x1="0"
       y2="0"
       gradientUnits="userSpaceOnUse"
       x2="3.4502" />
    <linearGradient
       id="Grad51"
       y1="-2"
       x1="0"
       y2="0"
       gradientUnits="userSpaceOnUse"
       x2="8.19775" />
    <linearGradient
       id="Grad52"
       y1="-2"
       x1="0"
       y2="0"
       gradientUnits="userSpaceOnUse"
       x2="2.87012" />
    <linearGradient
       id="Grad53"
       y1="-2"
       x1="0"
       y2="0"
       gradientUnits="userSpaceOnUse"
       x2="2.03809" />
    <linearGradient
       id="Grad54"
       y1="-2"
       x1="0"
       y2="0"
       gradientUnits="userSpaceOnUse"
       x2="7.54053" />
    <linearGradient
       id="Grad55"
       y1="-2"
       x1="0.123"
       y2="0"
       gradientUnits="userSpaceOnUse"
       x2="1.68262" />
    <linearGradient
       id="Grad56"
       y1="-2"
       x1="0.059"
       y2="0"
       gradientUnits="userSpaceOnUse"
       x2="6.63232" />
    <linearGradient
       id="Grad57"
       y1="-2"
       x1="0.0727"
       y2="0"
       gradientUnits="userSpaceOnUse"
       x2="1.49316" />
    <linearGradient
       id="Grad58"
       y1="0.0527"
       x1="3.10194"
       y2="-1.19117"
       gradientUnits="userSpaceOnUse"
       x2="0.828148" />
    <linearGradient
       id="Grad59"
       y1="-2"
       x1="0"
       y2="0"
       gradientUnits="userSpaceOnUse"
       x2="18.2148" />
    <linearGradient
       id="Grad60"
       y1="-2"
       x1="0"
       y2="0"
       gradientUnits="userSpaceOnUse"
       x2="6.27539" />
    <linearGradient
       id="Grad61"
       y1="-2"
       x1="0"
       y2="0"
       gradientUnits="userSpaceOnUse"
       x2="6.5752" />
    <linearGradient
       id="Grad62"
       y1="-2"
       x1="0"
       y2="0"
       gradientUnits="userSpaceOnUse"
       x2="4.33203" />
    <linearGradient
       id="Grad63"
       y1="-2"
       x1="0"
       y2="0"
       gradientUnits="userSpaceOnUse"
       x2="13.624" />
    <linearGradient
       id="Grad64"
       y1="-2"
       x1="0.0585"
       y2="0"
       gradientUnits="userSpaceOnUse"
       x2="12.2139" />
    <linearGradient
       id="Grad65"
       y1="-2"
       x1="0"
       y2="0"
       gradientUnits="userSpaceOnUse"
       x2="15.313" />
    <linearGradient
       id="Grad66"
       y1="-2"
       x1="5.68434e-14"
       y2="0"
       gradientUnits="userSpaceOnUse"
       x2="15.9531" />
    <linearGradient
       id="Grad67"
       y1="-2"
       x1="0"
       y2="0"
       gradientUnits="userSpaceOnUse"
       x2="6.59961" />
    <linearGradient
       id="Grad68"
       y1="-2"
       x1="5.68434e-14"
       y2="0"
       gradientUnits="userSpaceOnUse"
       x2="7.01758" />
    <linearGradient
       id="Grad69"
       y1="-2"
       x1="0"
       y2="0"
       gradientUnits="userSpaceOnUse"
       x2="6.9541" />
    <linearGradient
       id="Grad70"
       y1="-2"
       x1="5.68434e-14"
       y2="0"
       gradientUnits="userSpaceOnUse"
       x2="6.67578" />
    <linearGradient
       id="Grad71"
       y1="-2"
       x1="0"
       y2="0"
       gradientUnits="userSpaceOnUse"
       x2="15.3052" />
    <linearGradient
       id="Grad72"
       y1="-2"
       x1="0"
       y2="0"
       gradientUnits="userSpaceOnUse"
       x2="4.00537" />
    <linearGradient
       id="Grad73"
       y1="-2"
       x1="0"
       y2="0"
       gradientUnits="userSpaceOnUse"
       x2="3.6582" />
    <linearGradient
       id="Grad74"
       y1="-2"
       x1="0"
       y2="0"
       gradientUnits="userSpaceOnUse"
       x2="7.03809" />
    <linearGradient
       id="Grad75"
       y1="-2"
       x1="0"
       y2="0"
       gradientUnits="userSpaceOnUse"
       x2="14.2847" />
    <linearGradient
       id="Grad76"
       y1="-2"
       x1="0"
       y2="0"
       gradientUnits="userSpaceOnUse"
       x2="13.2764" />
    <linearGradient
       id="Grad77"
       y1="-2"
       x1="0"
       y2="0"
       gradientUnits="userSpaceOnUse"
       x2="5.46289" />
    <linearGradient
       id="Grad78"
       y1="-2"
       x1="0"
       y2="0"
       gradientUnits="userSpaceOnUse"
       x2="19.041" />
    <linearGradient
       id="Grad79"
       y1="-2"
       x1="0"
       y2="0"
       gradientUnits="userSpaceOnUse"
       x2="12.5195" />
    <linearGradient
       id="Grad80"
       y1="-2"
       x1="2.84217e-14"
       y2="0"
       gradientUnits="userSpaceOnUse"
       x2="9.96436" />
    <linearGradient
       id="Grad81"
       y1="-2"
       x1="0"
       y2="0"
       gradientUnits="userSpaceOnUse"
       x2="1.9292" />
  </defs>
  <g
     id="Layer 1">
    <path
       style="fill:#ffffff;fill-rule:nonzero;stroke:none;fill-opacity:0"
       d="M467.516 520.732 L0 520.732 L0 0 L467.516 0 L467.516 520.732 Z"
       transform="translate(0, 0)"
       id="path3476" />
    <g
       id="Group2"
       clip-path="url(#Clip0)">
      <g
         id="Group1"
         clip-path="url(#Clip1)">
        <path
           style="fill:#f7cc14; fill-rule:nonzero;stroke:none;"
           d="M120.92 79.499 C120.92 79.499 117.576 80.0137 102.911 92.6201 C88.2461 105.226 54.0283 135.328 32.4175 175.463 C10.8061 215.598 0 267.697 12.7349 307.446 C25.4702 347.195 46.0527 373.309 74.0952 388.488 C102.138 403.668 154.367 404.439 194.758 369.707 C235.152 334.975 250.845 296.898 253.933 257.021 C257.02 217.142 258.564 169.803 226.147 108.571 C193.73 47.3389 139.444 2.5723 132.498 0 L171.347 115.26 C171.347 115.26 172.633 112.688 170.575 104.712 C168.516 96.7363 153.08 48.1109 153.08 48.1109 C153.08 48.1109 203.25 94.9356 228.462 158.998 C253.675 223.06 245.958 267.568 232.322 296.898 C218.686 326.228 183.888 363.403 133.719 368.035 C133.719 368.035 118.669 401.802 83.7432 391.382 C48.8184 380.962 44.959 334.653 44.959 334.653 C44.959 334.653 26.2422 312.462 19.4883 283.519 C12.7349 254.576 17.3662 229.491 23.9263 208.651 C30.4873 187.812 41.6782 163.692 64.2544 136.292 C86.8306 108.893 121.435 84.0659 120.92 79.499 Z"
           transform="translate(102.387, 21.0014)"
           id="path3480" />
        <path
           style="fill:#f7cc14; fill-rule:nonzero;stroke:none;"
           d="M2.5718 41.0996 C2.5718 41.0996 10.29 33.6387 14.1494 30.5513 C18.0088 27.4643 25.7905 22.5762 25.7905 22.5762 C25.7905 22.5762 33.7017 4.8237 33.1226 0 C33.1226 0 25.0186 4.438 19.6157 7.7183 C14.2124 10.9985 4.9507 18.331 4.9507 18.331 C4.9507 18.331 0 35.5044 2.5718 41.0996 Z"
           transform="translate(166.707, 165.398)"
           id="path3482" />
        <path
           style="fill:#f7cc14; fill-rule:nonzero;stroke:none;"
           d="M81.6216 75.2534 C79.499 68.2104 71.6841 38.8809 66.5708 20.7432 C61.4575 2.6055 61.94 0.1929 61.94 0.1929 C63.6763 0 78.9199 17.9453 86.4453 28.9438 C93.9707 39.9424 104.776 55.958 107.864 69.4648 C110.95 82.9722 109.408 104.39 108.636 111.723 C107.864 119.055 106.127 133.527 106.127 133.527 C119.248 129.282 131.212 112.301 137.772 112.301 C144.333 112.301 149.35 118.862 149.929 127.545 C150.508 136.228 147.034 142.789 147.034 142.789 C146.648 150.507 142.21 162.084 132.948 174.241 C123.687 186.397 108.057 197.782 108.057 197.782 C108.057 197.782 99.5664 209.359 94.3565 225.954 C89.147 242.548 91.4629 247.371 91.4629 247.371 L95.3213 228.848 C116.161 209.166 143.368 179.258 143.368 179.258 C144.333 187.555 141.631 212.832 140.088 226.146 C138.544 239.46 130.825 252.003 125.423 259.721 C120.019 267.439 98.2158 295.997 98.2158 295.997 C98.2158 295.997 101.882 325.905 93.3916 351.183 C84.9019 376.46 65.0274 383.02 56.1509 383.985 C47.2749 384.95 22.7691 382.635 11.3848 347.131 C0 311.626 4.3745 279.402 7.3335 260.492 C10.293 241.583 21.3545 210.066 29.2017 199.132 C37.0493 188.198 46.9541 184.982 53.6431 191.157 C60.3325 197.331 59.1743 217.656 54.8013 231.292 C50.4278 244.928 37.9165 257.984 27.5933 257.213 C17.2705 256.44 16.5947 245.441 17.3667 240.81 C18.1382 236.18 22.9624 229.041 22.9624 229.041 C26.8213 237.53 32.8032 235.986 39.3638 232.514 C45.9243 229.041 50.5552 221.516 50.5552 221.516 C50.5552 218.428 47.2749 209.938 37.0484 209.938 C26.8213 209.938 16.981 231.549 12.1568 251.81 C7.333 272.069 6.9468 307.96 11.1919 325.134 C15.437 342.307 28.3653 362.953 45.9243 362.953 C63.4834 362.953 78.1485 350.604 86.8311 333.045 C95.5147 315.485 96.0938 276.701 96.0938 276.701 C96.0938 276.701 104.776 263.387 122.914 241.39 C141.053 219.393 136.422 207.043 136.422 207.043 C115.582 234.25 87.0244 257.984 87.0244 257.984 C86.8311 223.638 100.532 195.852 100.532 195.852 C89.147 175.591 102.268 150.121 102.268 150.121 C101.303 143.174 101.882 129.282 102.653 123.107 C103.426 116.932 104.97 101.303 105.162 91.0762 C105.356 80.8491 92.4268 60.9751 89.6924 55.958 C86.958 50.9409 77.7622 38.5918 77.7622 38.5918 C77.7622 38.5918 86.8311 74.0962 88.5679 81.6211 C90.3042 89.1465 91.2691 101.11 91.2691 101.11 C86.4453 94.7422 83.7442 82.2969 81.6216 75.2534 Z M107.671 181.959 C107.671 181.959 117.801 173.566 118.862 167.777 C119.924 161.988 115.968 157.839 111.819 158.032 C107.671 158.226 102.172 163.339 102.364 167.487 C102.558 171.636 105.066 174.337 108.25 174.048 C111.434 173.759 112.302 172.987 112.302 172.987 C112.302 172.987 110.083 178.197 107.671 181.959 Z M122.433 169.993 C122.433 169.993 125.905 166.715 126.774 164.786 C127.642 162.856 129.379 160.541 131.598 158.515 C133.816 156.489 141.728 149.06 141.631 143.271 C141.535 137.482 138.157 134.492 135.843 134.492 C133.527 134.492 127.449 141.149 127.16 142.981 C126.87 144.815 127.835 146.165 127.738 149.639 C127.642 153.112 126.002 159.866 124.844 162.76 C123.687 165.654 122.239 169.411 122.433 169.993 Z"
           transform="translate(144.065, 27.8193)"
           id="path3484" />
        <path
           style="fill:#f7cc14; fill-rule:nonzero;stroke:none;"
           d="M10.9981 0.9941 C10.9981 0.9941 3.4727 11.4141 0.9639 18.5527 C0.9639 18.5527 0 20.4199 2.8291 20.9346 C5.6592 21.4482 14.9219 24.1494 16.337 25.3076 C16.337 25.3076 18.3956 27.2363 20.1954 25.3076 C21.9971 23.3779 27.9141 12.3154 29.3291 8.457 C29.3291 8.457 31.5157 6.3975 28.4288 5.2392 C25.3409 4.082 15.7569 0.9941 13.377 0.9941 C13.377 0.9941 11.6983 0 10.9981 0.9941 Z"
           transform="translate(274.505, 300.053)"
           id="path3486" />
      </g>
      <path
         style="fill:#f7cc14; fill-rule:nonzero;stroke:none;"
         d="M11.9712 47.583 L11.9634 47.583 C11.9634 47.583 10.8985 48.1465 6.8462 35.1182 C2.794 22.0972 0.1929 6.5601 0.0928 3.2803 C0 0 1.8604 0.957 1.8604 0.957 C1.9444 1.273 2.0298 1.6055 2.1065 1.9375 C2.1065 1.9375 0.71 0.5479 0.5791 2.4771 C0.4478 4.4072 1.9912 13.2832 3.7974 21.001 C5.5957 28.7192 9.0694 41.4395 11.832 46.333 C11.8779 46.773 11.9248 47.1895 11.9712 47.583 Z"
         transform="translate(222.986, 77.3144)"
         id="path3488" />
      <path
         style="fill:#f7cc14; fill-rule:nonzero;stroke:none;"
         d="M49.9141 57.7481 C68.0523 35.6274 105.146 0 110.202 0.1929 C104.212 8.0806 74.667 30.3862 54.607 54.73 C32.0308 82.1304 20.8394 106.25 14.2788 127.089 C8.6446 144.996 4.4307 166.036 7.6411 189.97 C5.4414 177.976 5.6577 162.979 5.6577 162.979 C2.8868 174.989 1.4126 189.732 6.4292 211.859 C11.4463 233.988 18.3926 243.759 22.6377 250.32 C23.0547 250.961 23.4556 251.571 23.8262 252.142 L23.2622 252.52 C22.8306 251.856 22.3599 251.176 21.8662 250.451 C17.8833 244.662 6.2364 227.165 3.1182 198.869 C0 170.567 5.4029 143.421 12.3492 123.74 C19.2959 104.058 31.7764 79.876 49.9141 57.7481 Z"
         transform="translate(112.035, 102.569)"
         id="path3490" />
      <path
         style="fill:#f7cc14; fill-rule:nonzero;stroke:none;"
         d="M54.3838 221.046 L52.2373 223.06 C55.7881 214.176 58.5352 204.488 60.1797 194.022 C66.7402 152.344 62.4951 117.805 50.918 86.3525 C39.3399 54.9004 18.5 22.6767 7.0166 6.7534 C5.5801 4.7622 4.1143 2.7861 2.6397 0.8491 L3.7588 0 C22.0664 24.1279 42.6211 56.3281 54.3906 91.3618 C54.3906 91.3618 51.5586 68.3535 39.541 36.9399 C70.9541 97.2744 69.4111 144.062 66.3545 183.534 C63.2666 223.414 47.5752 261.489 7.1787 296.222 C4.8242 298.244 2.4307 300.149 0 301.933 C8.7363 293.836 12.7813 283.31 12.8975 282.985 C12.9053 282.977 12.9053 282.977 12.9053 282.977 L12.334 282.259 C43.9248 257.06 54.1904 221.731 54.3838 221.046 Z"
         transform="translate(289.965, 94.4873)"
         id="path3492" />
      <path
         style="fill:url(#Grad0); fill-rule:nonzero;stroke:none;"
         d="M105.008 156.913 C116.585 188.365 120.83 222.905 114.269 264.583 C112.625 275.049 109.878 284.736 106.327 293.62 L106.32 293.628 C106.312 293.658 106.297 293.69 106.289 293.721 C95.6836 320.163 77.9013 339.482 60.4345 351.028 C37.0859 366.466 31.1045 362.992 31.1045 362.992 C31.1045 362.992 52.3144 353.274 57.5322 343.179 L57.5244 343.171 C77.1601 328.971 91.2617 310.261 98.833 293.975 C112.471 264.644 120.189 220.134 94.9736 156.072 C69.7578 92.0098 19.5888 45.1904 19.5888 45.1904 C19.5888 45.1904 20.8164 49.0498 22.6142 54.7769 L22.6142 54.7847 C22.4521 54.9854 20.5918 57.5552 22.622 62.3638 C24.7373 67.3804 36.5068 103.464 36.5068 103.464 L36.5068 108.327 L0 0 C0.2617 0.2705 5.6494 5.8037 9.8252 11.1143 C10.8515 12.4111 11.8007 13.7002 12.581 14.896 C16.6328 21.0708 20.4922 29.1753 21.0703 32.2622 C21.6494 35.3496 21.6494 36.8931 23.7724 39.209 C25.8955 41.5244 27.7236 38.8233 31.8769 42.5816 C35.5048 45.8775 46.372 57.8101 56.7295 71.4097 C58.2041 73.3467 59.6699 75.3228 61.1064 77.314 C72.5898 93.2373 93.4297 125.461 105.008 156.913 Z"
         transform="translate(235.875, 23.9267)"
         id="path3494" />
      <path
         style="fill:url(#Grad1); fill-rule:nonzero;stroke:none;"
         d="M67.8828 2.0136 L70.0293 0 C69.8359 0.6855 59.5703 36.0136 27.9795 61.2128 C20.0527 67.5341 10.791 73.2226 0 77.5527 C0.7949 77.1045 51.6982 48.1074 67.8447 2.1142 C67.8525 2.083 67.8682 2.0517 67.876 2.0214 L67.8828 2.0136 Z"
         transform="translate(274.32, 315.533)"
         id="path3496" />
      <path
         style="fill:url(#Grad2); fill-rule:nonzero;stroke:none;"
         d="M85.5498 102.437 C97.5674 133.851 106.993 185.322 106.993 185.322 C98.208 135.924 68.0752 89.625 49.7676 65.4971 C29.6612 38.9927 12.2793 22.2436 12.2793 22.2436 C8.6826 13.7378 4.6846 8.6904 2.3008 5.6113 C1.0567 3.998 0.2539 2.9248 0.1924 2.1763 C0 0 2.3848 0.1694 2.3848 0.1694 C21.6729 16.0381 59.6084 53.4253 84.5772 100.584 C84.9014 101.194 85.2256 101.812 85.542 102.421 C85.542 102.429 85.5498 102.429 85.5498 102.437 Z"
         transform="translate(243.957, 28.9902)"
         id="path3498" />
      <path
         style="fill:#f7cc14; fill-rule:nonzero;stroke:none;"
         d="M44.5806 75.4385 C55.3716 71.1084 64.6333 65.4199 72.5601 59.0986 L73.1314 59.8164 C73.1314 59.8164 73.1314 59.8164 73.1236 59.8252 C28.7505 98.6006 0 92.8115 0 92.8115 C8.2974 87.4092 11.5777 81.4278 11.5777 81.4278 L5.3872 73.3154 C6.0435 72.1113 6.3677 71.3936 6.3677 71.3936 C28.6734 69.333 47.9468 60.8428 63.6607 49.4502 L63.6685 49.458 C58.4507 59.5537 37.2408 69.2715 37.2408 69.2715 C37.2408 69.2715 43.2222 72.7451 66.5708 57.3076 C84.0376 45.7617 101.82 26.4424 112.425 0 C96.2788 45.9932 45.3755 74.9903 44.5806 75.4385 Z"
         transform="translate(229.739, 317.647)"
         id="path3500" />
      <path
         style="fill:url(#Grad3); fill-rule:nonzero;stroke:none;"
         d="M12.6807 3.1035 C15.7686 4.2607 13.584 6.3144 13.584 6.3144 C13.0664 7.7344 11.9317 10.1279 10.6192 12.6904 C10.2579 10.6133 8.4668 10.5283 6.6377 11.2236 C4.8008 11.9092 0.7481 13.5234 0.2696 12.1719 C0.2539 12.1191 0.2383 12.0644 0.2315 12.0019 C0 10.6055 2.6387 7.9434 3.9356 6.0908 C5.2481 4.207 3.0948 0.208 2.9786 0 C6.5684 0.9971 10.8125 2.4014 12.6807 3.1035 Z"
         transform="translate(290.251, 302.194)"
         id="path3502" />
      <path
         style="fill:url(#Grad4); fill-rule:nonzero;stroke:none;"
         d="M124.852 0 C124.736 0.3242 120.691 10.8506 111.955 18.9473 C111.947 18.9551 111.947 18.9551 111.939 18.9629 C73.4712 47.2813 26.69 46.3545 0 32.8174 L0.4868 31.8604 C2.4937 32.8867 4.6236 33.7822 6.8858 34.5225 C7.294 34.6621 7.7036 34.794 8.1201 34.916 C37.9434 43.8154 53.2725 20.4902 57.1157 13.4902 L63.3062 21.6026 C63.3062 21.6026 60.0259 27.584 51.7285 32.9863 C51.7285 32.9863 80.479 38.7754 124.852 0 Z"
         transform="translate(178.011, 377.473)"
         id="path3504" />
      <path
         style="fill:#f7cc14; fill-rule:nonzero;stroke:none;"
         d="M15.4746 2.1621 C13.2285 6.5527 10.4424 11.4238 9.3086 12.6426 C7.5019 14.5723 5.4492 12.6426 5.4492 12.6426 C4.8008 12.1172 2.54 11.2754 0 10.459 C1.7217 5.6719 5.125 6.4678 5.125 6.4678 C5.125 6.4678 4.5459 4.7627 3.9511 1.6524 L5.0869 1.4736 C5.0937 1.5361 5.1093 1.5908 5.125 1.6436 C5.6035 2.9951 9.6562 1.3809 11.4931 0.6953 C13.3222 0 15.1133 0.085 15.4746 2.1621 Z"
         transform="translate(285.396, 312.723)"
         id="path3506" />
      <path
         style="fill:#f7cc14; fill-rule:nonzero;stroke:none;"
         d="M9.2237 2.1377 C9.3399 2.3457 11.4932 6.3447 10.1807 8.2285 C8.8838 10.0811 6.2451 12.7432 6.4766 14.1396 L5.3408 14.3184 C5.0332 12.6894 4.7158 10.6816 4.4854 8.3281 C3.8135 1.4746 0 3.1484 0 3.1484 C0.9033 1.8135 1.4981 0.9951 1.4981 0.9951 C2.2002 0 3.875 0.9951 3.875 0.9951 C4.8164 0.9951 6.877 1.4746 9.2237 2.1377 Z"
         transform="translate(284.006, 300.057)"
         id="path3508" />
      <path
         style="fill:url(#Grad5); fill-rule:nonzero;stroke:none;"
         d="M20.4932 15.2432 C20.8555 20.708 19.6123 25.3316 18.6485 28.0098 C18.6485 28.0098 18.6485 28.0098 18.6407 28.0176 C18.4473 28.2178 15.6612 31.0738 15.8379 25.7867 C15.8457 25.6245 15.8457 25.4546 15.8614 25.2774 C16.2471 19.1026 12.1954 14.8575 6.793 14.6646 C4.878 14.5952 3.2344 15.3286 1.8301 16.502 L0 16.1079 C3.6055 13.3604 6.045 11.7627 7.6504 10.2036 C8.4678 9.4087 9.0694 8.6289 9.4942 7.7183 C10.8448 4.8238 8.336 0 8.336 0 C14.8975 0 19.9141 6.5601 20.4932 15.2432 Z"
         transform="translate(273.501, 140.126)"
         id="path3510" />
      <path
         style="fill:#f7cc14; fill-rule:nonzero;stroke:none;"
         d="M48.0234 59.8858 L46.9043 60.7349 C36.5468 47.1353 25.6796 35.2027 22.0517 31.9068 C17.8984 28.1485 16.0703 30.8496 13.9472 28.5342 C11.8242 26.2183 11.8242 24.6748 11.2451 21.5874 C10.667 18.5005 6.8076 10.396 2.7558 4.2212 C1.9755 3.0254 1.0263 1.7363 0 0.4395 L0.5566 0 C2.9404 3.0791 6.9384 8.1265 10.5351 16.6323 C10.5351 16.6323 27.917 33.3814 48.0234 59.8858 Z"
         transform="translate(245.701, 34.6015)"
         id="path3512" />
      <path
         style="fill:#f7cc14; fill-rule:nonzero;stroke:none;"
         d="M9.293 2.2383 C8.7285 3.813 8.25 4.708 8.25 4.708 C8.0508 8.6675 6.7842 13.6455 4.3457 19.2027 L4.1367 19.1104 C4.7705 17.1734 4.1367 12.4414 4.1367 12.4414 C3.5889 13.9312 2.5078 15.6988 1.1728 17.5591 L0 16.9956 C0.1846 16.7256 0.3701 16.4473 0.5478 16.1543 C3.0557 12.0327 5.7734 5.7652 5.8809 0 L6.4902 0.0074 C6.3135 5.2945 9.0996 2.4385 9.293 2.2383 Z"
         transform="translate(282.849, 165.905)"
         id="path3514" />
      <path
         style="fill:url(#Grad6); fill-rule:nonzero;stroke:none;"
         d="M16.0157 17.6592 C16.0157 17.6592 12.6124 16.8633 10.8907 21.6504 C7.835 20.6768 4.377 19.7432 2.8331 19.457 C0 18.9404 0.9649 17.0801 0.9649 17.0801 C2.7715 11.9404 7.1778 5.1006 9.501 1.6738 C9.501 1.6738 13.3145 0 13.9864 6.8535 C14.2168 9.207 14.5342 11.2148 14.8418 12.8438 C15.4366 15.9541 16.0157 17.6592 16.0157 17.6592 Z"
         transform="translate(274.505, 301.531)"
         id="path3516" />
      <path
         style="fill:#f7cc14; fill-rule:nonzero;stroke:none;"
         d="M12.1416 0.0694 C17.544 0.2623 21.5957 4.5074 21.21 10.6822 C21.1943 10.8594 21.1943 11.0293 21.1865 11.1915 L20.5772 11.1841 C20.6006 10.4659 20.5693 9.7632 20.501 9.0694 C19.8604 2.771 14.9815 0.8409 12.5967 1.2271 C10.2119 1.6128 6.4834 4.1138 5.3262 8.0733 C5.3262 8.0733 7.1162 7.9961 10.3662 8.0733 C7.6182 9.6324 3.3115 14.5494 3.0723 16.085 C3.0723 16.085 0 15.313 1.7285 10.6822 C2.8486 7.6875 4.6162 4.0523 7.1787 1.9068 C8.583 0.7334 10.2266 0 12.1416 0.0694 Z"
         transform="translate(268.153, 154.721)"
         id="path3518" />
      <path
         style="fill:url(#Grad7); fill-rule:nonzero;stroke:none;"
         d="M15.1748 8.2285 C15.2431 8.9223 15.2744 9.625 15.251 10.3432 C15.1435 16.1084 12.4258 22.3759 9.9179 26.4975 C9.7402 26.7905 9.5547 27.0688 9.3701 27.3388 C6.5596 31.3755 2.6084 33.166 2.6084 33.166 C4.3213 30.8198 5.2558 27.7788 5.2558 27.7788 C8.3515 24.5371 12.2803 19.6206 12.2178 15.5298 C12.1181 9.7407 8.7441 6.7539 6.4297 6.7539 C6.0508 6.7539 5.581 6.9316 5.04 7.2324 C1.79 7.1552 0 7.2324 0 7.2324 C1.1572 3.2729 4.8857 0.7719 7.2705 0.3862 C9.6553 0 14.5342 1.9301 15.1748 8.2285 Z"
         transform="translate(273.479, 155.562)"
         id="path3520" />
      <path
         style="fill:#f7cc14; fill-rule:nonzero;stroke:none;"
         d="M10.6211 0 C10.8828 2.2539 10.8759 5.7578 10.6904 9.9258 C10.6904 9.9258 10.2353 8.3896 8.8838 10.2265 C7.5332 12.0561 4.4453 16.7871 3.7666 18.8096 C3.0957 20.8393 2.5166 22.6689 3.1884 22.769 C3.8662 22.8618 7.0468 18.331 7.5332 19.4883 C7.9961 20.6157 9.5703 24.4746 9.7256 23.7803 C9.1777 30.1167 8.498 36.6235 7.8886 42.0571 C7.8808 41.8486 7.7959 39.5796 7.3408 38.2056 C7.3408 38.2056 6.0127 42.7363 5.125 45.7309 L4.7392 45.623 C6.3134 40.081 6.5761 35.4585 6.5839 32.9956 C6.5918 29.0054 5.9277 25.6631 5.1562 25.7715 C4.3838 25.8872 3.6738 27.7861 3.6738 27.7861 C3.2881 28.2876 2.9023 28.7812 2.5166 29.2837 C0 30.2021 1.166 26.8213 1.166 24.2436 C1.166 21.6728 2.1923 17.5591 4.2988 14.4722 C6.3603 11.4463 8.0732 3.0415 8.1435 2.7095 C8.1435 2.7012 8.1435 2.7012 8.1435 2.7012 C9.7324 0.9805 10.6211 0 10.6211 0 Z"
         transform="translate(276.813, 207.082)"
         id="path3522" />
      <path
         style="fill:url(#Grad8); fill-rule:nonzero;stroke:none;"
         d="M19.5117 6.669 L19.7207 6.7613 C18.5928 9.3394 17.2119 12.0411 15.5518 14.8194 C15.5518 14.8194 16.293 9.3472 11.917 13.7925 C9.0537 16.7183 5.2402 21.3262 1.8291 25.2701 L0 25.0772 C1.3125 23.4488 3.6035 20.5694 4.8467 18.8946 C6.1973 17.0577 12.5342 10.69 16.5478 5.1177 C17.8828 3.2574 18.9639 1.4898 19.5117 0 C19.5117 0 20.1455 4.732 19.5117 6.669 Z"
         transform="translate(267.474, 178.347)"
         id="path3524" />
      <path
         style="fill:url(#Grad9); fill-rule:nonzero;stroke:none;"
         d="M6.3672 1.8369 C7.7187 0 8.1738 1.5362 8.1738 1.5362 C7.9961 5.6656 7.6484 10.4507 7.2158 15.3286 C7.2158 15.3521 7.209 15.375 7.209 15.3907 C7.0537 16.085 5.4795 12.2261 5.0166 11.0987 C4.5302 9.9414 1.3496 14.4722 0.6718 14.3794 C0 14.2793 0.5791 12.4497 1.25 10.42 C1.9287 8.3975 5.0166 3.6665 6.3672 1.8369 Z"
         transform="translate(279.33, 215.472)"
         id="path3526" />
      <path
         style="fill:url(#Grad10); fill-rule:nonzero;stroke:none;"
         d="M22.1826 3.8515 C22.1826 3.8588 22.1826 3.8671 22.1826 3.8671 C21.9893 5.5957 21.8037 7.2089 21.6348 8.6831 C20.9014 15.0356 18.7549 21.2094 16.1319 26.767 L16.124 26.767 C12.9746 26.1889 1.0879 40.8989 0 42.2504 C0.5401 41.4858 4.252 36.2377 9.7637 27.8784 C15.7451 18.81 18.1602 11.6704 18.8164 9.5473 C18.9571 9.0844 19.1719 8.3667 19.419 7.5253 C20.3067 4.5307 21.6348 0 21.6348 0 C22.0899 1.374 22.1748 3.643 22.1826 3.8515 Z"
         transform="translate(262.519, 245.288)"
         id="path3528" />
      <path
         style="fill:url(#Grad11); fill-rule:nonzero;stroke:none;"
         d="M17.4746 0 L18.6474 0.5635 C14.6338 6.1358 8.2969 12.5035 6.9463 14.3404 C5.7031 16.0152 3.4121 18.8946 2.0996 20.523 C1.498 21.2637 1.1035 21.75 1.1035 21.75 L0.7099 21.4952 C1.4433 20.2911 1.6601 19.1641 1.1035 18.0684 C0 15.8843 1.1191 14.9117 1.1191 14.9117 C1.1191 14.9117 4.5928 11.6392 5.4648 9.7095 C6.3301 7.7798 8.0654 5.4644 10.2891 3.4346 C10.9375 2.8404 12.0713 1.7906 13.3603 0.44 C13.3603 0.44 12.4258 3.481 10.7129 5.8272 C10.7129 5.8272 14.6641 4.0367 17.4746 0 Z"
         transform="translate(265.375, 182.901)"
         id="path3530" />
      <path
         style="fill:url(#Grad12); fill-rule:nonzero;stroke:none;"
         d="M53.9516 0 C53.8813 0.332 52.1684 8.7368 50.1069 11.7627 C48.0004 14.8496 46.9741 18.9633 46.9741 21.5341 C46.9741 24.1118 45.8081 27.4926 48.3247 26.5742 C46.8735 28.434 45.392 30.2705 43.8862 32.0844 L44.3032 23.0771 C44.3032 23.0771 41.0532 22.6914 38.4838 25.7788 C36.6079 28.0327 32.7026 32.1772 28.6196 36.4536 C27.1069 38.0434 25.5708 39.6489 24.104 41.1845 C18.7016 46.8422 14.1704 49.5825 12.6274 52.7924 C11.0913 56.0112 8.8999 63.8608 9.9262 65.4282 C10.4585 66.2378 10.9985 66.2075 11.4008 65.9829 C4.6235 72.2426 0.0854 76.017 0.0854 76.017 C0 61.5913 2.3774 48.3169 5.1567 37.7807 L7.3012 38.3442 C6.6001 41.2387 6.2436 44.1792 6.5297 46.935 L6.5376 46.935 C2.4858 61.1596 4.5229 65.4047 4.5229 65.4047 L8.3823 46.8803 C25.4477 30.7651 46.7807 7.7954 53.9516 0 Z"
         transform="translate(231.005, 209.791)"
         id="path3532" />
      <path
         style="fill:url(#Grad13); fill-rule:nonzero;stroke:none;"
         d="M90.8213 0.1084 C91.5928 0 92.2569 3.3423 92.249 7.3325 C92.2412 9.7954 91.9785 14.4179 90.4043 19.9599 C89.4317 23.3867 87.958 27.1611 85.7276 30.997 C79.8848 41.0312 72.5752 51.9677 66.8408 59.1689 C61.1055 66.3779 56.8604 71.6494 55.0547 77.5693 C53.9278 81.2812 52.3291 86.0215 51.1094 91.0683 C50.3926 94.0556 49.7979 97.1435 49.5205 100.207 C48.7569 108.442 46.6953 127.476 42.0645 139.439 C37.4336 151.402 15.3052 172.998 0 161.367 C0 161.367 6.584 161.212 13.461 155.022 C24.4893 150.345 33.6128 140.535 39.749 128.124 C48.4326 110.565 49.0108 71.7802 49.0108 71.7802 C49.0108 71.7802 57.6944 58.4668 75.8321 36.4687 C93.9707 14.4721 89.3389 2.123 89.3389 2.123 C89.3389 2.123 90.0489 0.2241 90.8213 0.1084 Z"
         transform="translate(191.148, 232.745)"
         id="path3534" />
      <path
         style="fill:#f7cc14; fill-rule:nonzero;stroke:none;"
         d="M7.5479 0 C7.5479 0 10.0567 4.8238 8.7061 7.7183 C8.2813 8.6289 7.6797 9.4087 6.8623 10.2036 L6.4141 9.7173 C7.8574 7.626 6.876 0.3086 0 4.0288 C2.9483 1.6358 5.5108 0 7.5479 0 Z"
         transform="translate(274.289, 140.126)"
         id="path3536" />
      <path
         style="fill:#f7cc14; fill-rule:nonzero;stroke:none;"
         d="M42.1426 4.8081 C46.5186 0.3628 45.7774 5.835 45.7774 5.835 C44.0654 8.7295 42.0654 11.7163 39.7656 14.7339 C30.5039 26.8901 14.874 38.2749 14.874 38.2749 C14.874 38.2749 6.3838 49.8521 1.1738 66.4463 C0.8496 67.4732 0.5567 68.4614 0.294 69.3955 L0.2861 69.3955 C0 66.6397 0.3565 63.6992 1.0576 60.8047 C2.6787 54.19 6.1358 47.8306 7.9268 44.5112 C10.4971 39.7495 12.4277 35.8901 12.5586 33.8369 C12.6895 31.7759 12.4277 31.2588 10.8838 29.7153 C9.3399 28.1719 10.1113 26.3731 10.4971 25.4702 C10.8838 24.5752 9.4707 22.2593 9.1777 21.1016 C8.8848 19.9439 5.3574 15.4365 7.6719 7.7183 C9.9883 0 12.5586 1.5127 12.5586 1.5127 C10.8135 3.1104 9.4863 5.148 9.2236 7.0776 C6.877 11.6314 8.3135 15.7066 9.7256 18.2534 C11.1455 20.8086 12.6895 20.0674 12.5899 22.4522 C12.4893 24.8296 12.5586 26.3731 14.1026 28.1719 C15.6455 29.9775 23.2334 25.6016 27.2227 21.6113 C28.5967 20.2451 30.2725 18.3545 32.0547 16.2857 C35.4658 12.3418 39.2793 7.7339 42.1426 4.8081 Z"
         transform="translate(237.248, 187.331)"
         id="path3538" />
      <path
         style="fill:#f7cc14; fill-rule:nonzero;stroke:none;"
         d="M20.2617 34.833 C21.3496 33.4815 33.2363 18.7715 36.3857 19.3496 C33.5137 25.4473 30.0566 30.8037 27.2314 34.8399 C21.8281 42.5586 0.0244 71.1162 0.0244 71.1162 L0 71.1084 C1.2197 66.0616 2.8184 61.3213 3.9453 57.6094 C5.751 51.6895 9.9961 46.418 15.7314 39.209 C21.4658 32.0078 28.7754 21.0713 34.6182 11.0371 C36.8486 7.2012 38.3223 3.4268 39.2949 0 L39.6807 0.1079 C39.4336 0.9493 39.2188 1.667 39.0781 2.1299 C38.4219 4.253 36.0068 11.3926 30.0254 20.461 C24.5137 28.8203 20.8018 34.0684 20.2617 34.833 Z"
         transform="translate(242.257, 252.705)"
         id="path3540" />
      <path
         style="fill:#f7cc14; fill-rule:nonzero;stroke:none;"
         d="M30.5108 0 L30.959 0.4863 C29.3536 2.0454 26.9141 3.6431 23.3086 6.3906 C22.9463 6.6685 22.5762 6.9624 22.1895 7.2627 C16.0157 12.0869 13.3829 18.0684 7.3633 16.7178 L6.1749 28.1021 C6.1749 28.1021 10.3819 25.0147 12.9122 29.0669 C15.4366 33.1192 16.2852 40.6441 16.2852 40.6441 C16.2852 40.6441 15.8223 44.3106 18.7168 40.7373 C18.3545 41.6402 17.9688 42.6284 17.6055 43.5777 C15.7295 44.7505 15.3057 45.3374 14.9961 42.4429 C14.9268 41.7407 14.8575 40.8374 14.7813 39.6797 C14.379 33.7598 12.9122 29.0669 10.2891 28.6113 C7.6719 28.1636 5.4024 29.5147 5.4024 29.5147 C5.4024 29.5147 5.4024 19.6118 5.4024 16.293 C5.4024 12.9668 0 11.5078 0 11.5078 C4.4991 10.0567 8.8594 7.1006 12.9122 3.8516 C12.9122 3.8516 8.2969 10.9214 9.6485 12.9512 C10.9991 14.981 14.1778 13.1441 17.6055 10.0567 C21.0323 6.9693 28.1172 1.6055 30.1016 0.4092 C30.2559 0.3159 30.3946 0.1778 30.5108 0 Z"
         transform="translate(250.193, 149.843)"
         id="path3542" />
      <path
         style="fill:url(#Grad14); fill-rule:nonzero;stroke:none;"
         d="M15.7998 3.7202 C22.6758 0 23.6572 7.3174 22.2139 9.4087 C22.0977 9.5865 21.959 9.7246 21.8047 9.8179 C19.8203 11.0142 12.7354 16.378 9.3086 19.4654 C5.8809 22.5528 2.7022 24.3897 1.3516 22.3599 C0 20.3301 4.6153 13.2603 4.6153 13.2603 C8.7071 9.9795 12.4805 6.399 15.7774 3.7281 C15.7842 3.7202 15.792 3.7202 15.7998 3.7202 Z"
         transform="translate(258.49, 140.434)"
         id="path3544" />
      <path
         style="fill:url(#Grad15); fill-rule:nonzero;stroke:none;"
         d="M17.1337 0 L18.9638 0.3941 C16.4013 2.5396 14.6337 6.1748 13.5136 9.1695 C11.7851 13.8003 14.8574 14.5723 14.8574 14.5723 C14.5644 16.4014 15.5292 17.752 15.4355 21.2256 C15.3369 24.6988 13.7001 31.4522 12.5419 34.3467 C9.6474 37.92 10.1103 34.2535 10.1103 34.2535 C10.1103 34.2535 9.2617 26.7286 6.7373 22.6763 C4.207 18.6241 0 21.7115 0 21.7115 L1.1884 10.3272 C7.208 11.6778 9.8408 5.6963 16.0146 0.8721 C16.4013 0.5718 16.7714 0.2779 17.1337 0 Z"
         transform="translate(256.368, 156.234)"
         id="path3546" />
      <path
         style="fill:#f7cc14; fill-rule:nonzero;stroke:none;"
         d="M15.6836 0.3857 L15.2666 9.393 C14.456 10.3813 13.6308 11.354 12.8047 12.3188 C12.8047 12.3188 14.2402 6.8232 13.8545 1.9297 C13.8545 1.9297 4.1211 10.1884 0.3789 14.1167 L0 13.7622 C4.083 9.4858 7.9883 5.3413 9.8642 3.0874 C12.4336 0 15.6836 0.3857 15.6836 0.3857 Z"
         transform="translate(259.625, 232.483)"
         id="path3548" />
      <path
         style="fill:url(#Grad16); fill-rule:nonzero;stroke:none;"
         d="M16.4941 47.0044 C18.5556 54.977 17.2666 57.5552 17.2666 57.5552 L15.915 53.542 L15.915 48.6792 C15.915 48.6792 4.1455 12.5957 2.0302 7.5791 C0 2.7705 1.8603 0.2007 2.0224 0 C6.6377 14.5874 15.0127 41.2773 16.4941 47.0044 Z"
         transform="translate(256.467, 78.7114)"
         id="path3550" />
      <path
         style="fill:url(#Grad17); fill-rule:nonzero;stroke:none;"
         d="M29.3447 0 C29.7304 4.8935 28.2949 10.3891 28.2949 10.3891 C24.3437 15.0278 20.2919 19.4736 16.331 23.6176 C10.3964 28.8432 0 36.6616 0 36.6616 C0 36.6616 0.5244 34.3461 2.2919 29.978 C4.0517 25.602 9.3232 19.0952 9.3232 19.0952 L15.5283 12.5502 C15.6367 12.434 15.7519 12.311 15.8691 12.187 C19.6113 8.2587 29.3447 0 29.3447 0 Z"
         transform="translate(244.134, 234.413)"
         id="path3552" />
      <path
         style="fill:url(#Grad18); fill-rule:nonzero;stroke:none;"
         d="M23.3486 9.0152 L25.1777 9.2081 C23.3955 11.2769 21.7197 13.1675 20.3457 14.5337 C16.3564 18.524 8.7685 22.8999 7.2256 21.0943 C5.6816 19.2955 5.6123 17.752 5.7129 15.3746 C5.8125 12.9898 4.2685 13.731 2.8486 11.1758 C1.4365 8.629 0 4.5538 2.3466 0 C2.3007 0.3086 2.2851 0.6099 2.3007 0.9029 C2.4931 5.0479 5.0019 7.7491 8.1904 7.4634 C11.1699 7.1856 12.1259 6.4913 12.2343 6.4063 C12.1338 6.6456 9.9648 11.7007 7.6113 15.3746 C7.6113 15.3746 11.1386 12.4498 14.249 8.8609 C13.9863 9.1851 9.5556 14.7115 10.0576 16.3394 C10.5664 18.0069 15.3291 16.7256 18.416 13.8931 C19.9599 12.4805 21.2177 11.1915 21.9589 9.9874 L22.3525 10.2422 C22.3525 10.2422 22.747 9.7559 23.3486 9.0152 Z"
         transform="translate(244.125, 194.409)"
         id="path3554" />
      <path
         style="fill:url(#Grad19); fill-rule:nonzero;stroke:none;"
         d="M4.6934 10.9834 C6.8545 8.498 8.8067 5.6885 9.2461 3.3115 C9.4473 2.1919 9.4707 1.1421 9.3321 0.1699 L11.5078 0 C11.8174 2.8945 12.2412 2.3076 14.1172 1.1348 C13.3223 3.2266 12.6817 5.125 12.8125 5.5264 C12.8125 5.5264 11.6934 6.499 12.7969 8.6831 C13.3535 9.7788 13.1367 10.9058 12.4033 12.1099 C11.6621 13.314 10.4043 14.603 8.8604 16.0156 C5.7735 18.8481 1.0108 20.1294 0.502 18.4619 C0 16.834 4.4307 11.3076 4.6934 10.9834 Z"
         transform="translate(253.681, 192.286)"
         id="path3556" />
      <path
         style="fill:url(#Grad20); fill-rule:nonzero;stroke:none;"
         d="M59.6694 164.315 L57.4937 164.485 C56.937 160.402 53.7114 157.731 50.3618 157.885 C48.3941 157.979 46.1089 159.182 44.2876 160.873 C44.2876 160.873 41.7173 159.36 39.4009 167.078 C37.0864 174.796 40.6138 179.304 40.9067 180.462 C41.1997 181.619 42.6128 183.935 42.2261 184.83 C41.8403 185.733 41.0689 187.532 42.6128 189.075 C44.1567 190.619 44.4185 191.136 44.2876 193.197 C44.1567 195.25 42.2261 199.109 39.6558 203.871 C37.8648 207.19 34.4077 213.55 32.7866 220.165 L30.6421 219.601 C34.4692 205.052 39.0776 195.705 39.0776 195.705 C27.6929 175.445 40.814 149.974 40.814 149.974 C39.8491 143.028 40.4282 129.135 41.1997 122.96 C41.9722 116.786 43.5151 101.156 43.7085 90.9292 C43.9019 80.7027 30.9732 60.8277 28.2407 55.8106 C25.501 50.794 16.3086 38.4449 16.3086 38.4449 C16.3086 38.4449 17.6128 43.5464 19.3267 50.3003 C19.3267 50.3003 17.4663 49.3433 17.5591 52.6236 C17.6592 55.9034 20.2603 71.4405 24.3125 84.4615 C28.3648 97.4898 29.4297 96.9263 29.4297 96.9263 L29.4375 96.9263 C29.6846 99.3501 29.8154 100.963 29.8154 100.963 C24.9917 94.5953 22.2905 82.146 20.1675 75.1065 C19.936 74.3501 19.6431 73.3316 19.2881 72.0889 C16.3941 61.8702 9.6787 36.7779 5.1167 20.5923 C0 2.4541 0.4858 0.0464 0.4858 0.0464 C0.8872 0 2.0064 0.9185 3.5806 2.5005 C3.5806 2.5005 3.5806 2.5005 3.5806 2.5088 C3.6733 2.9175 5.3247 9.6402 9.9409 18.1148 C14.7031 26.8672 18.9482 34.0684 20.4917 36.1294 C22.0357 38.1822 24.6982 40.1817 26.6279 42.69 C28.5571 45.1983 37.5347 57.1617 41.1997 67.0953 C44.8667 77.0362 47.1821 86.4913 46.0239 100.77 C44.8667 115.049 42.5894 125.854 45.3218 127.931 C44.9429 131.119 44.6733 133.38 44.6733 133.38 C44.6733 133.38 50.0757 134.839 50.0757 138.165 C50.0757 141.484 50.0757 151.387 50.0757 151.387 C50.0757 151.387 52.3452 150.036 54.9624 150.483 C57.5855 150.939 59.0523 155.632 59.4546 161.552 C59.5308 162.709 59.6001 163.613 59.6694 164.315 Z"
         transform="translate(205.519, 27.9711)"
         id="path3558" />
      <path
         style="fill:#f7cc14; fill-rule:nonzero;stroke:none;"
         d="M20.0986 0.3545 C19.9814 0.4785 19.8662 0.6015 19.7578 0.7177 L13.5527 7.2627 C13.5527 7.2627 8.2812 13.7695 6.5214 18.1455 C4.7539 22.5136 4.2295 24.8291 4.2295 24.8291 C4.2295 24.8291 14.6259 17.0107 20.5605 11.7851 C14.1855 18.4697 8.08 24.3652 3.1025 28.9746 C3.1025 28.9746 3.1025 28.9746 3.0937 28.9814 C2.8945 29.1748 2.6933 29.3603 2.5009 29.5293 C2.0986 29.7539 1.5586 29.7842 1.0263 28.9746 C0 27.4072 2.1914 19.5576 3.7275 16.3388 C5.2705 13.1289 9.8017 10.3886 15.2041 4.7309 C16.6709 3.1953 18.207 1.5898 19.7197 0 L20.0986 0.3545 Z"
         transform="translate(239.905, 246.245)"
         id="path3560" />
      <path
         style="fill:#f7cc14; fill-rule:nonzero;stroke:none;"
         d="M38.3838 64.208 C38.3144 63.8379 37.2646 58.6202 35.0488 52.6851 C35.4277 53.2564 41.4092 62.4947 43.1533 68.3531 C45.8008 81.8985 44.3418 102.004 43.6015 109.067 C43.1386 113.497 42.3125 120.544 41.7412 125.422 C39.0088 123.346 41.2861 112.54 42.4433 98.2613 C43.6015 83.9825 41.2861 74.5274 37.6191 64.5865 C33.9541 54.6529 24.9765 42.6895 23.0473 40.1812 C21.1176 37.6729 18.4551 35.6734 16.9111 33.6206 C15.3676 31.5596 11.1225 24.3584 6.3603 15.606 C1.7441 7.1314 0.0927 0.4087 0 0 C2.0302 2.0142 4.8091 5.1324 7.8037 8.6831 C7.6494 8.5977 6.1982 7.8721 5.7197 8.6905 C5.2026 9.5625 8.0351 16.7637 9.9643 20.2373 C11.8945 23.7105 15.7534 32.0767 18.9643 34.647 C22.1831 37.2173 28.2256 45.8384 31.4453 51.2417 C34.6562 56.6285 37.0947 60.8741 38.3838 64.208 Z"
         transform="translate(209.1, 30.4799)"
         id="path3562" />
      <path
         style="fill:url(#Grad21); fill-rule:nonzero;stroke:none;"
         d="M29.8462 44.813 C32.062 50.7481 33.1118 55.9658 33.1812 56.3359 C31.8921 53.002 29.4536 48.7564 26.2427 43.3696 C23.023 37.9663 16.9805 29.3452 13.7617 26.7749 C10.5508 24.2046 6.6919 15.8384 4.7617 12.3652 C2.8325 8.8916 0 1.6904 0.5171 0.8184 C0.9956 0 2.4468 0.7256 2.6011 0.811 L2.6089 0.811 C7.3633 6.4605 12.6499 13.2144 16.2085 18.416 C23.7339 29.4146 34.5396 45.4297 37.6275 58.937 C37.7427 59.4395 37.8511 59.9561 37.9507 60.481 C36.2066 54.6226 30.2251 45.3843 29.8462 44.813 Z"
         transform="translate(214.303, 38.352)"
         id="path3564" />
      <path
         style="fill:#f7cc14; fill-rule:nonzero;stroke:none;"
         d="M11.4541 8.1582 C11.4541 8.1582 9.0693 7.9888 9.2617 10.1651 C9.3232 10.9136 10.126 11.9868 11.3701 13.6001 L10.8135 14.0396 C6.6377 8.729 1.25 3.1958 0.9883 2.9253 C0.9805 2.9175 0.9805 2.9175 0.9805 2.9175 L0 0 C1.5986 0.5943 5.6963 3.4116 11.4541 8.1582 Z"
         transform="translate(234.887, 21.0014)"
         id="path3566" />
      <path
         style="fill:url(#Grad22); fill-rule:nonzero;stroke:none;"
         d="M11.9634 0.0616 C12.5962 7.1231 14.0474 31.1123 7.2476 52.2139 C7.2476 52.2139 6.5455 45.5918 4.7471 47.9073 C4.0679 48.7784 3.0337 50.8868 1.7139 53.4248 L0 53.17 C0.4473 52.1827 0.8643 51.1563 1.2354 50.0831 C1.2354 50.0831 6.607 42.8897 9.3785 17.1651 C9.3785 17.1651 11.0142 0 11.9634 0.0616 Z"
         transform="translate(230.526, 325.821)"
         id="path3568" />
      <path
         style="fill:#f7cc14; fill-rule:nonzero;stroke:none;"
         d="M61.7617 2.0694 C60.8125 2.0078 59.1768 19.1729 59.1768 19.1729 C56.4053 44.8975 51.0337 52.0909 51.0337 52.0909 C50.6626 53.1641 50.2456 54.1905 49.7983 55.1778 C42.9365 70.1368 27.1304 75.7637 17.2349 75.6475 C6.6914 75.5166 0 67.543 0 67.543 L3.126 66.1065 C5.1021 66.6631 7.147 66.9649 9.2622 66.9649 C14.4102 66.9649 19.311 65.8994 23.8809 63.9541 C17.0039 70.1436 10.4199 70.2989 10.4199 70.2989 C25.7251 81.9297 47.8535 60.334 52.4844 48.3711 C57.1152 36.4073 59.1768 17.3741 59.9404 9.1387 C60.2178 6.0752 60.8125 2.9873 61.5293 0 L61.5537 0.0078 C61.5537 0.0078 61.6465 0.7412 61.7617 2.0694 Z"
         transform="translate(180.728, 323.813)"
         id="path3570" />
      <path
         style="fill:#f7cc14; fill-rule:nonzero;stroke:none;"
         d="M88.5059 99.3574 C88.4053 99.6816 88.2979 100.006 88.1895 100.33 C81.1426 121.309 66.2618 129.398 56.3204 132.082 C69.4654 127.043 75.0684 117.95 75.0684 117.95 C63.2979 125.537 48.8262 127.853 38.0206 124.511 C27.2149 121.169 13.8394 107.145 9.3316 95.0586 C4.8321 82.9717 0.2007 60.5801 0.3321 39.7412 C0.3482 37.1396 0.4634 34.5615 0.6636 32.0527 C2.0303 14.4717 7.1856 0 7.1856 0 C7.1089 0.3164 7.0313 0.6406 6.9541 0.956 C5.6109 6.6064 4.608 13.4678 3.9595 20.8076 L3.9595 20.8154 C0 31.9844 0.9727 44.4951 2.2613 56.8447 C3.543 69.1933 5.3492 88.2344 15.3829 104.574 C25.4165 120.907 41.2393 122.967 50.8872 122.967 C60.5347 122.967 69.0249 117.31 74.4278 112.934 C77.8081 110.201 80.7803 104.798 82.9722 100.568 C84.292 98.0303 85.3262 95.9219 86.0054 95.0508 C87.8038 92.7353 88.5059 99.3574 88.5059 99.3574 Z"
         transform="translate(149.268, 278.678)"
         id="path3572" />
      <path
         style="fill:url(#Grad23); fill-rule:nonzero;stroke:none;"
         d="M9.2002 31.583 C10.1958 35.8901 10.9365 41.6479 11.3842 45.7851 C8.6216 40.8916 5.1479 28.1713 3.3496 20.4531 C1.5434 12.7353 0 3.8593 0.1313 1.9292 C0.2622 0 1.6587 1.3896 1.6587 1.3896 C4.4453 12.3491 8.1499 27.0449 9.2002 31.583 Z"
         transform="translate(223.434, 77.8623)"
         id="path3574" />
      <path
         style="fill:url(#Grad24); fill-rule:nonzero;stroke:none;"
         d="M81.2583 79.4981 L82.9722 79.7529 C80.7803 83.9824 77.8081 89.3858 74.4278 92.1182 C69.0249 96.4942 60.5347 102.151 50.8872 102.151 C41.2393 102.151 25.4165 100.092 15.3829 83.7588 C5.3492 67.419 3.543 48.3779 2.2613 36.0293 C0.9727 23.6797 0 11.169 3.9595 0 C2.2774 18.9717 2.9258 41.085 5.9898 53.4649 C9.7256 68.5694 20.1758 86.3604 34.586 90.4268 L31.46 91.8633 C31.46 91.8633 38.1514 99.8369 48.6949 99.9678 C58.5904 100.084 74.3965 94.4571 81.2583 79.4981 Z"
         transform="translate(149.268, 299.493)"
         id="path3576" />
      <path
         style="fill:url(#Grad25); fill-rule:nonzero;stroke:none;"
         d="M120.923 0 C120.977 0.5097 120.599 1.2734 119.85 2.2617 C114.794 2.0688 77.7002 37.6962 59.562 59.8169 C41.4243 81.9448 28.9438 106.126 21.9971 125.809 C15.0508 145.49 9.6479 172.636 12.7661 200.938 C15.8843 229.233 27.5312 246.73 31.5141 252.52 C32.0078 253.245 32.4785 253.925 32.9101 254.589 C35.9751 259.188 37.6885 262.554 40.3901 269.755 C43.4306 277.859 55.3716 288.379 55.7412 288.703 C55.749 288.71 55.749 288.71 55.749 288.71 C60.3501 296.606 66.8794 304.094 76.1103 308.833 L75.6235 309.79 C75.1064 309.535 74.5976 309.266 74.0957 308.994 C46.0552 293.813 25.4707 267.701 12.7353 227.952 C0 188.203 10.8056 136.104 32.417 95.9692 C54.0278 55.8339 88.2436 25.7329 102.908 13.121 C117.573 0.517 120.923 0 120.923 0 Z"
         transform="translate(102.387, 100.5)"
         id="path3578" />
      <path
         style="fill:url(#Grad26); fill-rule:nonzero;stroke:none;"
         d="M77.0752 85.9961 C77.0752 85.9961 71.4722 95.0889 58.3272 100.128 C56.2974 100.685 54.4683 101.016 52.9556 101.178 C49.6904 101.533 44.3106 101.441 38.252 99.4258 C27.8252 95.9521 15.3833 86.7685 8.1895 64.3232 C0.502 40.3584 0 17.8906 1.3975 0 L2.6704 0.0986 C2.4702 2.6074 2.355 5.1855 2.3389 7.7871 C2.2075 28.626 6.8389 51.0176 11.3384 63.1045 C15.8462 75.1904 29.2217 89.2148 40.0274 92.5566 C50.833 95.8994 65.3047 93.583 77.0752 85.9961 Z"
         transform="translate(147.261, 310.632)"
         id="path3580" />
      <path
         style="fill:url(#Grad27); fill-rule:nonzero;stroke:none;"
         d="M9.4546 2.6474 C14.0239 6.8613 14.9346 17.6826 13.6538 28.4653 C12.2563 24.1123 10.9985 22.3984 9.2617 18.3466 C7.5254 14.2944 4.6309 11.3999 2.3154 10.435 C0 9.4702 2.8945 7.9267 4.0518 5.8042 C5.21 3.6816 4.8857 0 4.8857 0 C6.5146 0.4785 8.0581 1.3584 9.4546 2.6474 Z"
         transform="translate(188.253, 216.329)"
         id="path3582" />
      <path
         style="fill:#f7cc14; fill-rule:nonzero;stroke:none;"
         d="M25.084 29.9702 C24.9448 31.1899 24.7676 32.4014 24.5664 33.6133 C24.5664 33.6133 22.043 35.7661 20.3062 38.9536 C20.0899 39.355 19.7818 39.8877 19.4033 40.5283 L18.315 39.9497 C19.7896 37.3335 20.8779 34.6553 21.0781 32.2007 C21.6568 25.061 15.8682 16.5708 14.5176 15.7373 C13.167 14.9038 8.1499 15.6064 7.3779 14.0625 C6.606 12.5185 12.0088 9.6245 11.6231 6.5371 C11.2368 3.4497 0 7.8418 0 7.8418 C5.3716 2.2612 11.2832 0 16.3159 1.5049 C16.3159 1.5049 16.6402 5.1865 15.482 7.3091 C14.3247 9.4316 11.4302 10.9751 13.7456 11.9399 C16.0611 12.9048 18.9556 15.7993 20.6919 19.8515 C22.4287 23.9033 23.6865 25.6172 25.084 29.9702 Z"
         transform="translate(176.823, 214.824)"
         id="path3584" />
      <path
         style="fill:url(#Grad28); fill-rule:nonzero;stroke:none;"
         d="M25.9488 5.3403 C27.6856 2.1528 30.209 0 30.209 0 C29.5992 3.7514 28.7354 7.4096 27.6856 10.6743 C27.2378 12.0786 26.6973 13.476 26.0874 14.8579 L26.0801 14.8579 C23.9956 16.0766 20.6309 18.8559 14.9737 23.185 C14.7188 23.3784 14.4717 23.5639 14.2242 23.7339 C8.9302 27.4614 5.024 26.7514 3.1797 26.6587 C1.2505 26.5659 2.3077 23.8647 2.2154 22.5141 C2.1148 21.2016 0.1231 17.8139 0 17.5971 C1.8443 19.7202 8.104 21.3559 12.4414 21.063 C16.2388 20.8159 22.4058 11.3999 25.0459 6.915 C25.4244 6.2744 25.7325 5.7417 25.9488 5.3403 Z"
         transform="translate(171.181, 248.437)"
         id="path3586" />
      <path
         style="fill:#f7cc14; fill-rule:nonzero;stroke:none;"
         d="M9.2089 20.9936 C9.6792 20.8081 20.2461 16.664 20.0605 22.5757 C20.0605 22.5757 12.2802 27.4614 8.4214 30.5488 C6.1601 32.3554 2.5864 35.6582 0 38.082 C0.2788 37.7427 8.7837 26.9907 7.518 21.8037 C7.518 21.8037 18.0693 12.666 23.4716 3.9209 L7.2177 12.2646 C9.5327 10.5742 11.956 8.8838 13.8857 7.7177 C19.289 4.438 27.393 0 27.393 0 C27.4389 0.3857 27.4311 0.8491 27.3769 1.374 L27.3691 1.374 C27.3691 1.374 14.4878 17.2192 9.2089 20.9936 Z"
         transform="translate(172.438, 165.403)"
         id="path3588" />
      <path
         style="fill:url(#Grad29); fill-rule:nonzero;stroke:none;"
         d="M18.1602 0 L18.168 0 C17.5591 6.1509 10.8516 21.2017 10.8516 21.2017 C11.0372 15.29 0.4703 19.4341 0 19.6196 C5.2789 15.8452 18.1602 0 18.1602 0 Z"
         transform="translate(181.647, 166.777)"
         id="path3590" />
      <path
         style="fill:url(#Grad30); fill-rule:nonzero;stroke:none;"
         d="M42.6821 12.2876 C44.0327 13.1211 49.8213 21.6113 49.2426 28.751 C49.0424 31.2056 47.9541 33.8838 46.4795 36.5 C43.6621 41.4863 39.4326 46.2168 37.2793 48.625 C33.999 52.292 25.7016 47.4678 25.7016 47.4678 C25.7016 47.4678 37.7885 43.9785 42.3579 35.8057 C44.6191 33.2432 45.9624 31.0664 45.9624 31.0664 C45.9624 27.979 42.6821 19.4888 32.4555 19.4888 C24.5825 19.4888 16.9419 32.2939 11.6391 47.4297 C10.1572 51.6514 8.8603 56.0508 7.7949 60.4043 C7.7949 60.4043 2.6396 74.876 1.2729 92.457 L0 92.3584 C0.6718 83.7432 1.7754 76.1875 2.7397 70.0439 C5.6958 51.1338 16.7636 19.6123 24.6059 8.6831 C25.7558 7.0854 26.9448 5.6504 28.1645 4.3921 C28.1645 4.3921 39.4013 0 39.7876 3.0874 C40.1733 6.1748 34.7705 9.0688 35.5424 10.6128 C36.3144 12.1567 41.3315 11.4541 42.6821 12.2876 Z"
         transform="translate(148.659, 218.273)"
         id="path3592" />
      <path
         style="fill:#f7cc14; fill-rule:nonzero;stroke:none;"
         d="M6.5297 11.955 C6.6528 12.1718 8.6445 15.5595 8.7451 16.872 C8.8374 18.2226 7.7802 20.9238 9.7094 21.0166 C11.5537 21.1093 15.4599 21.8193 20.7539 18.0918 L21.3637 18.9169 C21.125 19.0791 20.8466 19.2949 20.5151 19.5732 C15.8842 23.4326 9.3237 23.2392 7.0083 22.082 C4.6928 20.9238 6.622 17.2578 5.4643 16.0996 C4.3071 14.9423 1.2192 12.8193 0.5942 10.6972 C0 8.6748 0.5405 5.9355 0.5864 5.6728 C0.5942 5.6572 0.5942 5.6494 0.5942 5.6494 C1.5893 3.9511 2.3769 2.7861 2.3769 2.7861 C6.2363 11.2763 12.2182 9.7324 18.7783 6.2597 C21.8042 4.6543 24.4199 2.1914 26.3657 0 C21.7963 8.1728 9.7094 11.6621 9.7094 11.6621 C9.7094 11.6621 18.0068 16.4863 21.2871 12.8193 C23.4404 10.4111 27.6699 5.6806 30.4873 0.6943 L31.5756 1.2729 C28.9355 5.7578 22.7685 15.1738 18.9711 15.4209 C14.6337 15.7138 8.374 14.0781 6.5297 11.955 Z"
         transform="translate(164.651, 254.079)"
         id="path3594" />
      <path
         style="fill:url(#Grad31); fill-rule:nonzero;stroke:none;"
         d="M12.9521 8.3437 L29.206 0 C23.8037 8.7451 13.2524 17.8828 13.2524 17.8828 C14.5181 23.0698 6.0132 33.8218 5.7344 34.1611 C5.7344 34.1689 5.7344 34.1689 5.7344 34.1689 C3.9058 35.8896 2.5781 37.1787 2.5781 37.1787 C0 31.583 4.9556 14.4101 4.9556 14.4101 C4.9556 14.4101 8.7837 11.3769 12.9521 8.3437 Z"
         transform="translate(166.704, 169.324)"
         id="path3596" />
      <path
         style="fill:#f7cc14; fill-rule:nonzero;stroke:none;"
         d="M9.3164 8.3271 C14.9736 3.998 18.3383 1.2187 20.4228 0 C16.0698 9.8164 7.8965 18.5849 0 21.0703 L0 21.0625 C7.6723 14.3486 12.2724 7.5488 9.1767 9.7011 L8.5669 8.876 C8.8144 8.706 9.0615 8.5205 9.3164 8.3271 Z"
         transform="translate(176.838, 263.295)"
         id="path3598" />
      <path
         style="fill:url(#Grad32); fill-rule:nonzero;stroke:none;"
         d="M25.354 13.2441 C28.4497 11.0918 23.8496 17.8916 16.1773 24.6055 L16.1773 24.6133 C14.4258 25.1699 12.6807 25.4082 10.9986 25.2852 C0.6714 24.5127 0 13.5147 0.7715 8.8838 C0.8955 8.1572 1.1118 7.3789 1.3965 6.5684 C2.1919 4.2988 3.5039 1.8447 4.5767 0 C4.5308 0.2627 3.9903 3.002 4.5845 5.0244 C5.2095 7.1465 8.2974 9.2695 9.4546 10.4268 C10.6123 11.585 8.6831 15.251 10.9986 16.4092 C13.314 17.5664 19.8745 17.7598 24.5054 13.9004 C24.8369 13.6221 25.1153 13.4063 25.354 13.2441 Z"
         transform="translate(160.661, 259.752)"
         id="path3600" />
      <path
         style="fill:#f7cc14; fill-rule:nonzero;stroke:none;"
         d="M19.3355 27.7002 C20.3536 29.9619 21.5118 32.2383 22.8311 34.4922 C22.4615 34.168 10.5205 23.6484 7.48 15.5439 C4.7784 8.3428 3.065 4.9775 0 0.3779 L0.564 0 C4.0762 5.2637 6.1753 7.8955 8.3829 14.3857 C10.8296 21.5947 19.3355 27.7002 19.3355 27.7002 Z"
         transform="translate(135.297, 354.711)"
         id="path3602" />
      <path
         style="fill:url(#Grad33); fill-rule:nonzero;stroke:none;"
         d="M33.8985 90.1113 C33.8985 90.1113 34.9795 103.094 41.1851 116.863 C41.1851 116.863 32.6792 110.758 30.2325 103.549 C28.0249 97.0586 25.9258 94.4268 22.4136 89.1631 C22.043 88.5918 21.6421 87.9815 21.2251 87.3408 C16.98 80.7803 10.0337 71.0088 5.0166 48.8799 C0 26.7529 1.4742 12.0098 4.2451 0 C4.2451 0 4.0288 14.9971 6.2285 26.9912 C6.7534 30.9043 7.4785 34.9024 8.4283 38.9775 C15.1817 67.9219 33.8985 90.1113 33.8985 90.1113 Z"
         transform="translate(113.448, 265.548)"
         id="path3604" />
    </g>
    <g
       id="Group5"
       clip-path="url(#Clip2)">
      <g
         id="Group4"
         clip-path="url(#Clip3)">
        <path
           style="fill:#f7cc14; fill-rule:nonzero;stroke:none;"
           d="M21.8052 37.7881 L21.8052 35.9707 C25.1416 35.459 25.5317 34.833 24.6968 32.4473 C24.0845 30.5723 23.1392 27.9004 22.1387 25.1729 L11.0689 25.1729 C10.3457 27.2197 9.5674 29.4346 8.8999 31.709 C7.9546 34.7774 8.2319 35.459 12.2935 35.9707 L12.2935 37.7881 L0 37.7881 L0 35.9707 C3.6162 35.5147 4.3379 34.9473 6.23 30.0606 L17.6885 0.6816 L20.1367 0 C23.6397 9.8877 27.1445 20.1162 30.7598 29.8897 C32.5962 34.8906 33.3179 35.5723 36.8789 35.9707 L36.8789 37.7881 L21.8052 37.7881 Z M16.7988 9.3193 L16.6875 9.3193 C15.0186 13.6943 13.5171 18.1279 11.9585 22.3897 L21.249 22.3897 L16.7988 9.3193 Z"
           transform="translate(141.465, 453.048)"
           id="path3608" />
        <path
           style="fill:#f7cc14; fill-rule:nonzero;stroke:none;"
           d="M29.4848 27.5606 C29.0234 29.7754 27.8686 35.3448 27.3501 36.9356 L0 36.9356 L0 35.1182 C4.9624 34.7198 5.4814 34.379 5.4814 29.5489 L5.4814 7.3868 C5.4814 2.5567 5.02 2.2149 0.4614 1.8184 L0.4614 0 L17.1372 0 L17.1372 1.8184 C12.6928 2.2149 12.1743 2.5 12.1743 7.3868 L12.1743 29.7198 C12.1743 32.504 12.4048 33.5831 13.5581 34.0948 C14.5971 34.5489 16.2715 34.6622 18.29 34.6622 C21.0595 34.6622 23.0796 34.3223 24.4077 32.7872 C25.5039 31.6514 26.5425 29.8331 27.5224 27.0479 L29.4848 27.5606 Z"
           transform="translate(180.062, 453.9)"
           id="path3610" />
        <path
           style="fill:#f7cc14; fill-rule:nonzero;stroke:none;"
           d="M39.9322 1.8184 C35.4498 2.2149 35.0533 2.5567 35.0533 7.3301 L35.0533 29.6055 C35.0533 34.379 35.5074 34.7198 39.9322 35.1182 L39.9322 36.9356 L23.3692 36.9356 L23.3692 35.1182 C28.0201 34.7198 28.4742 34.379 28.4742 29.6055 L28.4742 18.753 L11.5713 18.753 L11.5713 29.6055 C11.5713 34.379 12.0254 34.7198 16.3926 35.1182 L16.3926 36.9356 L0.2276 36.9356 L0.2276 35.1182 C4.482 34.7198 4.9917 34.379 4.9917 29.6055 L4.9917 7.3301 C4.9917 2.5567 4.482 2.2149 0 1.8184 L0 0 L16.2222 0 L16.2222 1.8184 C12.0254 2.2149 11.5713 2.5567 11.5713 7.3301 L11.5713 16.0235 L28.4742 16.0235 L28.4742 7.3301 C28.4742 2.5567 28.0201 2.2149 23.7095 1.8184 L23.7095 0 L39.9322 0 L39.9322 1.8184 Z"
           transform="translate(211.276, 453.9)"
           id="path3612" />
        <path
           style="fill:#f7cc14; fill-rule:nonzero;stroke:none;"
           d="M0 36.9356 L0 35.1182 C4.4639 34.7198 4.9854 34.379 4.9854 29.5489 L4.9854 7.3868 C4.9854 2.5567 4.4639 2.2149 0 1.8184 L0 0 L16.6387 0 L16.6387 1.8184 C12.1739 2.2149 11.71 2.5567 11.71 7.3868 L11.71 29.5489 C11.71 34.379 12.1739 34.7198 16.6387 35.1182 L16.6387 36.9356 L0 36.9356 Z"
           transform="translate(255.631, 453.9)"
           id="path3614" />
        <path
           style="fill:#f7cc14; fill-rule:nonzero;stroke:none;"
           d="M17.1846 1.8184 C13.0313 2.2149 12.5762 2.6133 12.5762 7.3868 L12.5762 27.0479 C12.5762 33.8682 11.7784 38.7549 7.1123 42.7325 C4.9512 44.6075 2.7315 45.6866 0.7959 46.1983 L0 44.3233 C3.0733 42.9024 4.7793 40.6856 5.3496 37.2207 C5.8614 34.209 5.9746 30.6856 5.9746 26.253 L5.9746 7.3868 C5.9746 2.6133 5.4629 2.2149 1.0245 1.8184 L1.0245 0 L17.1846 0 L17.1846 1.8184 Z"
           transform="translate(276.077, 453.9)"
           id="path3616" />
        <path
           style="fill:#f7cc14; fill-rule:nonzero;stroke:none;"
           d="M34.8135 37.4473 C34.3555 37.4473 33.7236 37.3907 33.0371 37.3907 C26.8428 37.1065 24.6055 35.629 22.1396 31.9913 C20.4766 29.4913 18.7549 26.253 17.0918 23.3545 C16.1162 21.7071 15.1416 20.9678 12.8476 20.9678 L11.5283 20.9678 L11.5283 29.5489 C11.5283 34.2657 12.0449 34.7198 16.4609 35.1182 L16.4609 36.9356 L0 36.9356 L0 35.1182 C4.417 34.7198 4.9902 34.2657 4.9902 29.5489 L4.9902 7.3301 C4.9902 2.6709 4.4746 2.2149 0.2295 1.8184 L0.2295 0 L15.6016 0 C20.3603 0 23.2285 0.5108 25.4658 2.045 C27.7588 3.5801 29.3086 6.0811 29.3086 9.6036 C29.3086 14.5469 26.0957 17.3877 22.082 19.0362 C22.999 20.7979 25.2353 24.5489 26.957 27.1622 C28.9648 30.2305 30.1699 31.9346 31.4297 33.2422 C32.75 34.6622 33.8398 35.3448 35.1582 35.7432 L34.8135 37.4473 Z M13.4785 18.8653 C16.0596 18.8653 17.9531 18.4668 19.3281 17.3311 C21.3359 15.6827 22.1963 13.4102 22.1963 10.4561 C22.1963 4.3184 18.4687 2.1026 14.8555 2.1026 C13.3066 2.1026 12.4453 2.3291 12.0449 2.6709 C11.6426 3.0108 11.5283 3.6368 11.5283 4.9444 L11.5283 18.8653 L13.4785 18.8653 Z"
           transform="translate(296.47, 453.9)"
           id="path3618" />
        <path
           style="fill:#f7cc14; fill-rule:nonzero;stroke:none;"
           d="M21.6377 37.7881 L21.6377 35.9707 C24.9502 35.459 25.3359 34.833 24.5078 32.4473 C23.9004 30.5723 22.9629 27.9004 21.9678 25.1729 L10.9844 25.1729 C10.2666 27.2197 9.4951 29.4346 8.832 31.709 C7.8945 34.7774 8.1699 35.459 12.2002 35.9707 L12.2002 37.7881 L0 37.7881 L0 35.9707 C3.5869 35.5147 4.3047 34.9473 6.1816 30.0606 L17.5547 0.6816 L19.9824 0 C23.459 9.8877 26.9365 20.1162 30.5254 29.8897 C32.3476 34.8906 33.0644 35.5723 36.5967 35.9707 L36.5967 37.7881 L21.6377 37.7881 Z M16.6709 9.3193 L16.5595 9.3193 C14.9043 13.6943 13.4131 18.1279 11.8681 22.3897 L21.0859 22.3897 L16.6709 9.3193 Z"
           transform="translate(331.446, 453.048)"
           id="path3620" />
        <path
           style="fill:#f7cc14; fill-rule:nonzero;stroke:none;"
           d="M40.3184 1.8184 C35.792 2.2149 35.3916 2.5567 35.3916 7.3301 L35.3916 29.6055 C35.3916 34.379 35.8516 34.7198 40.3184 35.1182 L40.3184 36.9356 L23.5957 36.9356 L23.5957 35.1182 C28.2911 34.7198 28.7491 34.379 28.7491 29.6055 L28.7491 18.753 L11.6836 18.753 L11.6836 29.6055 C11.6836 34.379 12.1416 34.7198 16.5508 35.1182 L16.5508 36.9356 L0.2305 36.9356 L0.2305 35.1182 C4.5245 34.7198 5.0401 34.379 5.0401 29.6055 L5.0401 7.3301 C5.0401 2.5567 4.5245 2.2149 0 1.8184 L0 0 L16.3789 0 L16.3789 1.8184 C12.1416 2.2149 11.6836 2.5567 11.6836 7.3301 L11.6836 16.0235 L28.7491 16.0235 L28.7491 7.3301 C28.7491 2.5567 28.2911 2.2149 23.9395 1.8184 L23.9395 0 L40.3184 0 L40.3184 1.8184 Z"
           transform="translate(370.406, 453.9)"
           id="path3622" />
        <g
           id="Group3"
           clip-path="url(#Clip4)">
          <path
             style="fill:#f7cc14; fill-rule:nonzero;stroke:none;"
             d="M30.9756 10.6631 C30.294 7.8565 29.6143 6.1163 28.7071 5.1631 C27.7422 4.0401 26.4937 3.6475 22.8067 3.6475 L19.7432 3.6475 L19.7432 30.6426 C19.7432 35.2452 20.253 35.6934 25.4161 36.086 L25.4161 37.8829 L7.7168 37.8829 L7.7168 36.086 C12.6524 35.6934 13.1617 35.3018 13.1617 30.6426 L13.1617 3.6475 L10.6656 3.6475 C5.9576 3.6475 4.8794 4.2081 4.0855 5.2754 C3.2349 6.2286 2.6109 8.0245 1.9297 10.7198 L0 10.7198 C0.2276 6.8467 0.5684 2.918 0.6812 0 L1.9864 0 C2.837 1.2901 3.5743 1.4024 5.1631 1.4024 L27.8555 1.4024 C29.3311 1.4024 30.0113 1.0655 30.9756 0 L32.2813 0 C32.2813 2.4131 32.5645 7.0713 32.8477 10.5508 L30.9756 10.6631 Z"
             transform="translate(56.7973, 452.492)"
             id="path3625" />
          <path
             style="fill:#f7cc14; fill-rule:nonzero;stroke:none;"
             d="M38.6338 1.8525 C34.8891 2.2451 33.9819 2.8613 31.7129 8.1377 C30.0107 12.2344 24.5073 25.5361 20.1401 37.0976 L17.6997 37.0976 C13.8418 26.8271 8.7934 13.8066 6.0708 7.1279 C4.3686 2.8613 3.4599 2.1885 0 1.8525 L0 0 L15.8271 0 L15.8271 1.8525 C11.7431 2.3564 11.686 2.918 12.5381 5.3877 C14.125 9.709 18.438 20.8779 21.1606 27.7246 L21.331 27.7246 C24.3369 19.9785 27.457 11.8984 29.1035 6.7353 C30.2944 3.0859 30.1816 2.4131 25.5293 1.8525 L25.5293 0 L38.6338 0 L38.6338 1.8525 Z"
             transform="translate(91.5747, 453.894)"
             id="path3627" />
        </g>
      </g>
      <path
         style="fill:url(#Grad34); fill-rule:nonzero;stroke:none;"
         d="M1.7978 22.6621 C1.7978 27.4384 2.2529 27.7792 6.7236 28.1718 L6.7236 28.6894 C6.7236 28.6894 0.833 29.7158 0.6406 26.374 C0.4482 23.0244 0.3173 9.2626 0.3173 9.2626 C0.3173 9.2626 0 3.4736 1.7978 0 C1.7978 0.124 1.7978 0.2548 1.7978 0.3857 L1.7978 22.6621 Z"
         transform="translate(404, 460.842)"
         id="path3629" />
      <path
         style="fill:url(#Grad35); fill-rule:nonzero;stroke:none;"
         d="M0.1933 2.0918 C0.1933 0.8027 0.9873 0 0.9873 0 L0.9873 8.3516 C0.9873 13.1279 1.4443 13.4687 5.8584 13.8613 L5.8584 14.6953 C5.8584 14.6953 0.3857 15.2744 0.1933 12.3174 C0 9.3623 0.1933 3.3799 0.1933 2.0918 Z"
         transform="translate(381.1, 475.152)"
         id="path3631" />
      <path
         style="fill:url(#Grad36); fill-rule:nonzero;stroke:none;"
         d="M0.7715 12.5723 C0 11.7393 0.4873 5.8193 0.4873 5.8193 C0.4873 5.8193 0.5645 0.6719 1.5664 0 C1.4121 0.7412 1.3731 1.7441 1.3731 3.1172 L1.3731 11.8174 L5.5264 11.8174 C5.5264 11.8174 4.7315 12.1338 3.7901 12.4102 C2.6172 12.75 1.1973 13.0371 0.7715 12.5723 Z"
         transform="translate(380.714, 458.11)"
         id="path3633" />
      <path
         style="fill:url(#Grad37); fill-rule:nonzero;stroke:none;"
         d="M7.3018 20.6162 C8.8906 24.9912 9.6475 26.0576 12.1709 26.5205 C11.9854 26.5898 9.0606 27.5468 7.0078 22.3838 C4.8857 17.042 0 2.7011 0 2.7011 L0 0 C2.4092 6.915 4.8232 13.8691 7.3018 20.6162 Z"
         transform="translate(354.665, 462.324)"
         id="path3635" />
      <path
         style="fill:url(#Grad38); fill-rule:nonzero;stroke:none;"
         d="M0.7344 3.1494 C1.4746 1.4825 2.7637 0 2.7637 0 C2.085 1.9297 1.4131 3.8438 0.7344 5.7198 C0.7344 5.7198 0 4.8252 0.7344 3.1494 Z"
         transform="translate(342.578, 469.718)"
         id="path3637" />
      <path
         style="fill:url(#Grad39); fill-rule:nonzero;stroke:none;"
         d="M7.1855 10.4199 C8.4443 11.7783 9.4931 12.457 10.7285 12.8584 L10.7285 13.6465 C10.7285 13.6465 7 13.4531 3.5888 8.375 C0.1855 3.2881 0 0 0 0 C0.8799 1.4736 1.8672 3.041 2.7158 4.3457 C4.7236 7.4102 5.9277 9.1152 7.1855 10.4199 Z"
         transform="translate(320.712, 476.719)"
         id="path3639" />
      <path
         style="fill:url(#Grad40); fill-rule:nonzero;stroke:none;"
         d="M1.3203 5.1094 C1.3203 8.9062 1.6523 9.9404 4.0839 10.4043 C4.0839 10.4043 0.7646 11.7012 0.6406 9.6475 C0.5166 7.5879 0 2.0527 1.3203 0 L1.3203 5.1094 Z"
         transform="translate(306.68, 478.34)"
         id="path3641" />
      <path
         style="fill:url(#Grad41); fill-rule:nonzero;stroke:none;"
         d="M7.8799 2.0059 C10.1729 3.542 11.7247 6.043 11.7247 9.5703 C11.7247 10.1035 11.6856 10.6045 11.6163 11.084 C11.5616 10.9287 10.7442 8.5752 10.1885 6.6524 C9.6094 4.6543 7.1631 3.1104 5.4952 2.4082 C3.8204 1.6983 0 0 0 0 C3.6055 0.1387 5.9747 0.7022 7.8799 2.0059 Z"
         transform="translate(314.051, 453.934)"
         id="path3643" />
      <path
         style="fill:url(#Grad42); fill-rule:nonzero;stroke:none;"
         d="M0.9346 0 L0.9346 13.7764 C0.9346 13.7764 0.1016 10.9365 0.0469 7.209 C0 3.4805 0.9346 0 0.9346 0 Z"
         transform="translate(307.066, 458.844)"
         id="path3645" />
      <path
         style="fill:url(#Grad43); fill-rule:nonzero;stroke:none;"
         d="M0 3.4043 L0.8252 0 C0.7949 0.5557 0.7793 1.2129 0.7793 1.9844 L0.7793 21.6426 C0.7793 24.7227 0.6162 27.417 0 29.8008 L0 3.4043 Z"
         transform="translate(287.872, 459.306)"
         id="path3647" />
      <path
         style="fill:url(#Grad44); fill-rule:nonzero;stroke:none;"
         d="M1.0566 11.9942 C1.0566 16.6328 1.4824 17.1348 5.4717 17.5137 C5.4717 17.5137 0 20.585 0.0693 12.1563 C0.1318 3.7285 1.0566 0 1.0566 0 L1.0566 11.9942 Z"
         transform="translate(266.283, 471.455)"
         id="path3649" />
      <path
         style="fill:url(#Grad45); fill-rule:nonzero;stroke:none;"
         d="M4.3686 8.8681 C4.3686 8.8681 2.0527 10.7441 1.0264 7.6562 C0 4.5693 1.3203 0 1.3203 0 L1.3203 3.5586 C1.3203 7.5869 1.6445 8.459 4.3686 8.8681 Z"
         transform="translate(221.524, 479.945)"
         id="path3651" />
      <path
         style="fill:url(#Grad46); fill-rule:nonzero;stroke:none;"
         d="M1.2583 2.3936 L8.876 2.3936 C8.876 2.3936 7.2476 3.1182 5.0708 3.4424 C4.4453 3.5352 3.7744 3.5967 3.0869 3.5967 C0 3.5967 0.3311 1.8604 1.2583 0 L1.2583 2.3936 Z"
         transform="translate(221.586, 467.534)"
         id="path3653" />
      <path
         style="fill:url(#Grad47); fill-rule:nonzero;stroke:none;"
         d="M1.0039 0 L1.0039 21.6191 C1.0039 21.6191 0.1235 18.9716 0.0615 11.5156 C0 4.0527 1.0039 0 1.0039 0 Z"
         transform="translate(191.23, 462)"
         id="path3655" />
      <path
         style="fill:url(#Grad48); fill-rule:nonzero;stroke:none;"
         d="M1.7759 1.1035 C4.4848 8.8369 7.209 16.663 10.0112 24.2197 C11.8398 29.2216 12.5649 29.9003 16.1245 30.2929 L16.1245 31.2578 C11.1523 31.3896 10.0342 27.8476 9.0073 25.9091 C7.9809 23.9648 0 0 0 0 L1.7759 1.1035 Z"
         transform="translate(162.217, 458.721)"
         id="path3657" />
      <path
         style="fill:url(#Grad49); fill-rule:nonzero;stroke:none;"
         d="M0.3242 3.9052 C0 2.8779 1.4746 0 1.4746 0 L1.6524 0.0537 C0.7871 2.9404 1.1504 3.6045 5.1109 4.0976 L5.1109 5.0625 C5.1109 5.0625 0.6411 4.9316 0.3242 3.9052 Z"
         transform="translate(148.648, 484.916)"
         id="path3659" />
      <path
         style="fill:url(#Grad50); fill-rule:nonzero;stroke:none;"
         d="M3.4502 0.0391 C2.5547 2.5469 1.6744 5.0557 0.7867 7.4942 L0 6.583 C0 6.583 1.358 1.9522 3.3497 0 L3.4502 0.0391 Z"
         transform="translate(152.639, 467.943)"
         id="path3661" />
      <path
         style="fill:url(#Grad51); fill-rule:nonzero;stroke:none;"
         d="M8.1977 0 C6.3374 4.4834 3.1118 12.3789 0 20.3525 C0.1631 19.7969 2.5703 11.6074 4.4306 7.1777 C4.6704 6.6064 4.9101 6.0654 5.1484 5.5488 C6.7929 1.9834 8.1977 0 8.1977 0 Z"
         transform="translate(114.054, 464.532)"
         id="path3663" />
      <path
         style="fill:url(#Grad52); fill-rule:nonzero;stroke:none;"
         d="M2.8701 0.2773 L2.8701 1.249 C1.6674 1.3809 0.7563 1.5283 0 1.8447 C1.4575 0 2.8701 0.2773 2.8701 0.2773 Z"
         transform="translate(127.338, 454.498)"
         id="path3665" />
      <path
         style="fill:url(#Grad53); fill-rule:nonzero;stroke:none;"
         d="M2.0381 0 L2.0381 0.9189 L0 0 L2.0381 0 Z"
         transform="translate(105.364, 453.895)"
         id="path3667" />
      <path
         style="fill:url(#Grad54); fill-rule:nonzero;stroke:none;"
         d="M7.5406 16.0313 L6.8155 16.9424 L0 0 L1.9522 2.1543 C3.7432 6.7998 5.8116 12.1182 7.3716 16.0313 L7.5406 16.0313 Z"
         transform="translate(105.364, 465.589)"
         id="path3669" />
      <path
         style="fill:url(#Grad55); fill-rule:nonzero;stroke:none;"
         d="M0.2622 2.708 C0.2622 2.708 0.2622 2.708 0.1308 1.3496 C0 0 1.5434 0.5 1.5434 0.5 L1.5512 0.5 C1.5752 2.0058 1.6748 4.0361 1.8056 6.0888 L0.2622 2.708 Z"
         transform="translate(87.5425, 452.824)"
         id="path3671" />
      <path
         style="fill:url(#Grad56); fill-rule:nonzero;stroke:none;"
         d="M0.0615 14.209 C0.1313 8.8906 0.0615 0 0.0615 0 L1.019 4.2832 L1.019 13.3213 C1.019 17.9209 1.5288 18.3769 6.6914 18.7715 L6.6914 19.9824 C6.6914 19.9824 2.6396 20.0527 1.8681 19.9824 C1.0962 19.9209 0 19.5263 0.0615 14.209 Z"
         transform="translate(75.5171, 469.811)"
         id="path3673" />
      <path
         style="fill:url(#Grad57); fill-rule:nonzero;stroke:none;"
         d="M1.5659 0.8555 C1.5659 0.8555 0.2549 1.9991 0.1313 3.1709 C0 4.337 0.1313 0 0.1313 0 L0.8257 0 C1.0732 0.377 1.3115 0.6553 1.5659 0.8555 Z"
         transform="translate(57.958, 452.492)"
         id="path3675" />
      <path
         style="fill:url(#Grad58); fill-rule:nonzero;stroke:none;"
         d="M0.896 0 L5.4331 12.7187 L2.9565 9.0615 L0 0.3701 L0.896 0 Z"
         transform="translate(158.266, 462)"
         id="path3677" />
      <path
         style="fill:#f5c300; fill-rule:nonzero;stroke:none;"
         d="M22.8774 23.8116 L12.2969 23.8116 L13.4917 25.1778 L11.0679 25.1778 C10.3501 27.2227 9.5708 29.4375 8.9004 31.7061 C8.876 31.7842 8.8535 31.8535 8.8384 31.9229 L8.6606 31.8692 C8.6606 31.8692 7.186 34.7471 7.5102 35.7744 C7.8271 36.8008 12.2969 36.9317 12.2969 36.9317 L12.2969 37.7891 L0 37.7891 L0 35.9668 C0.7646 35.8741 1.3901 35.7744 1.9297 35.628 C1.9297 35.628 1.9297 35.628 1.9375 35.628 C2.1225 35.7119 4.4077 36.6241 5.7041 33.7139 C7.0552 30.6963 11.0376 20.5313 12.2969 17.25 C13.5234 14.0479 15.0747 9.501 15.2139 7.0401 L17.6899 0.6787 L20.1372 0 C20.9331 2.2461 21.727 4.5078 22.5308 6.7774 L20.7549 5.6739 C20.7549 5.6739 28.7358 29.6387 29.7622 31.583 C30.7891 33.5215 31.9072 37.0635 36.8794 36.9317 L36.8794 37.7891 L21.8042 37.7891 L21.8042 35.9668 C23.5337 35.7051 24.4756 35.4121 24.854 34.8555 C26.9839 34.3242 26.5439 32.3633 26.5439 32.3633 L22.8774 23.8116 Z M22.2368 21.6719 L17.6997 8.9532 L16.8037 9.3233 L16.688 9.3233 C15.9775 11.1836 15.2983 13.0674 14.6269 14.9356 L14.5264 14.8965 C12.5347 16.8487 11.1767 21.4795 11.1767 21.4795 L11.9634 22.3907 L21.2495 22.3907 L19.7602 18.0147 L22.2368 21.6719 Z"
         transform="translate(141.462, 453.047)"
         id="path3679" />
      <path
         style="fill:url(#Grad59); fill-rule:nonzero;stroke:none;"
         d="M16.7725 1.7441 L0 1.7441 L0 1.459 C0 1.459 0.9649 0.6484 2.3311 0.2402 C2.8028 0.0996 3.3194 0.0078 3.8594 0.0146 C5.9815 0.0303 13.8936 0 15.5674 0.0146 C17.2432 0.0303 18.0762 1.1885 18.1377 2.3467 C18.208 3.5039 18.2696 13.0898 18.1377 14.6963 C18.0147 16.293 17.1192 17.2734 14.7569 17.6592 C16.5479 17.1269 16.7725 15.9687 16.7725 12.5967 L16.7725 1.7441 Z"
         transform="translate(382.381, 470.907)"
         id="path3681" />
      <path
         style="fill:url(#Grad60); fill-rule:nonzero;stroke:none;"
         d="M4.8086 7.332 C4.8086 2.5625 4.3535 2.2236 0 1.8222 L0 0 L0.3857 0 C0.3857 0 0.9033 1.0273 2.3154 1.0273 C3.7353 1.0273 6.1973 1.3515 6.2519 2.8945 C6.3057 4.4384 6.2519 15.1816 6.2519 15.1816 C6.2519 15.1816 4.8086 12.6201 4.8086 10.6211 L4.8086 7.332 Z"
         transform="translate(394.345, 453.895)"
         id="path3683" />
      <path
         style="fill:url(#Grad61); fill-rule:nonzero;stroke:none;"
         d="M6.5752 5.2109 C6.5752 8.622 6.5752 28.5429 6.5752 28.5429 L5.039 17.4277 L5.039 7.332 C5.039 2.5625 4.5224 2.2236 0 1.8222 L0 0 L0.5928 0 C0.5928 0 2.0752 1.2197 3.5566 1.2197 C5.0312 1.2197 6.5752 1.7988 6.5752 5.2109 Z"
         transform="translate(370.404, 453.895)"
         id="path3685" />
      <path
         style="fill:url(#Grad62); fill-rule:nonzero;stroke:none;"
         d="M1.08 0.6407 C1.5361 1.2813 4.5381 9.7793 4.3213 13.793 L0 1.0108 C0 1.0108 0.6328 0 1.08 0.6407 Z"
         transform="translate(348.113, 461.359)"
         id="path3687" />
      <path
         style="fill:url(#Grad63); fill-rule:nonzero;stroke:none;"
         d="M3.9443 25 L13.624 0 C13.624 0 12.8125 4.9854 11.6543 8.3281 C10.4961 11.6699 6.1279 23.6328 4.5156 27.2383 C2.9092 30.8418 0 30.4727 0 30.4727 C1.791 29.8936 2.5469 28.6504 3.9443 25 Z"
         transform="translate(333.679, 458.11)"
         id="path3689" />
      <path
         style="fill:url(#Grad64); fill-rule:nonzero;stroke:none;"
         d="M8.5449 2.7481 C7.248 1.7676 5.6425 1.3428 4.0673 1.3428 C2.5166 1.3428 1.6523 1.5664 1.2509 1.9141 C1.1503 1.999 1.0732 2.0996 1.0039 2.2227 C1.0039 2.2227 0 1.5518 0.0615 0.6484 C0.1005 0.1387 0.6796 0 1.6669 0 C2.4169 0 3.4033 0.0859 4.5693 0.1387 C7.2636 0.2627 10.7285 1.4111 12.2724 3.9824 C12.0791 3.8506 10.5205 2.794 8.5449 2.7481 Z"
         transform="translate(307.259, 454.66)"
         id="path3691" />
      <path
         style="fill:#f5c300; fill-rule:nonzero;stroke:none;"
         d="M19.6743 29.6084 C19.6743 34.3847 20.1226 34.7255 24.5522 35.1181 L24.5522 36.9404 L23.2935 36.9404 C23.2935 36.9404 18.0835 35.4423 16.2163 35.4814 C14.3481 35.5205 7.9883 35.8291 7.9883 35.8291 L7.9883 35.1181 C12.6343 34.7255 13.0894 34.3847 13.0894 29.6084 L13.0894 18.7558 L9.6548 18.7558 L12.4263 17.2353 C12.4263 17.2353 9.0767 17.1113 3.1646 17.2353 C1.8682 17.2656 0.8486 17.3505 0.0542 17.4746 L0 17.081 C2.1768 16.7568 3.8052 16.0322 3.8052 16.0322 L13.0894 16.0322 L13.0894 9.5166 C13.0894 11.2539 15.0034 15.4365 15.0034 15.4365 C15.0034 15.4365 14.9351 11.1298 14.9966 8.622 C15.0581 6.1132 14.5493 2.7636 13.9702 1.8681 C13.3911 0.9648 9.5933 0 9.5933 0 L24.5522 0 L24.5522 1.8222 C20.0669 2.2236 19.6743 2.5625 19.6743 7.332 L19.6743 29.6084 Z"
         transform="translate(226.657, 453.895)"
         id="path3693" />
      <path
         style="fill:url(#Grad65); fill-rule:nonzero;stroke:none;"
         d="M6.0513 0.124 C11.9634 0 15.313 0.124 15.313 0.124 L12.5415 1.6445 L0 1.6445 C0 1.6445 0.0771 0.7949 2.9409 0.3633 C3.7353 0.2392 4.7549 0.1543 6.0513 0.124 Z"
         transform="translate(223.77, 471.007)"
         id="path3695" />
      <path
         style="fill:url(#Grad66); fill-rule:nonzero;stroke:none;"
         d="M6.9072 9.5244 C10.0878 15.1113 15.9531 16.6172 15.9531 16.6172 L15.9238 16.9414 C11.083 16.4551 9.0537 14.9356 6.8447 11.6699 C5.3876 9.4854 3.8906 6.7217 2.416 4.1211 C2.2607 1.4736 0 0 0 0 C0.1084 0.0078 0.2148 0.0225 0.3164 0.0381 C3.4882 0.5244 3.8281 4.1211 6.9072 9.5244 Z"
         transform="translate(311.759, 474.219)"
         id="path3697" />
      <path
         style="fill:#f5c300; fill-rule:nonzero;stroke:none;"
         d="M17.0899 23.3554 C16.1172 21.7119 15.1446 20.9716 12.8438 20.9716 L11.5323 20.9716 L11.5323 24.4443 C10.212 26.497 10.7286 32.0322 10.8526 34.0918 C10.9766 36.1455 14.2959 34.8486 14.2959 34.8486 C14.8829 34.9638 15.5996 35.041 16.4629 35.1181 L16.4629 36.9404 L0 36.9404 L0 35.1181 C4.4161 34.7255 4.9864 34.2695 4.9864 29.5537 L4.9864 23.4795 C4.9864 29.1992 6.8008 34.0918 6.8008 34.0918 C6.8008 34.0918 6.8702 6.8154 6.8008 4.5703 C6.7393 2.3164 6.1602 1.3515 4.5547 1.2197 C2.9414 1.0966 2.0459 0 2.0459 0 L12.458 0 L12.458 0.7646 C11.4707 0.7646 10.8916 0.9033 10.8526 1.413 C10.7911 2.3164 11.795 2.9873 11.795 2.9873 C11.5948 3.3662 11.5323 3.9599 11.5323 4.9482 C11.5323 4.9482 10.5977 8.4287 10.6446 12.1572 C10.6993 15.8847 11.5323 18.7246 11.5323 18.7246 L11.5323 18.872 L13.4776 18.872 C14.1797 18.872 14.8282 18.8408 15.4297 18.7793 L15.6075 20.3613 C15.5059 20.3457 15.3995 20.331 15.2911 20.3232 C15.2911 20.3232 17.5518 21.7968 17.7071 24.4443 C17.4981 24.0742 17.2969 23.7109 17.0899 23.3554 Z"
         transform="translate(296.468, 453.895)"
         id="path3699" />
      <path
         style="fill:#f5c300; fill-rule:nonzero;stroke:none;"
         d="M10.6055 4.747 C9.0616 2.1757 5.5967 1.0273 2.9024 0.9033 C1.7364 0.8505 0.75 0.7646 0 0.7646 L0 0 L3.1416 0 C3.8438 0 4.5 0.0078 5.125 0.039 C5.125 0.039 8.9454 1.7373 10.6202 2.4472 C12.2881 3.1494 14.7344 4.6933 15.3135 6.6914 C15.8692 8.6142 16.6866 10.9677 16.7413 11.123 C16.7413 11.1298 16.7413 11.1298 16.7413 11.1298 C16.1465 15.1445 13.2061 17.5673 9.626 19.041 C10.0879 19.9287 10.8907 21.3261 11.7862 22.8232 C11.7862 22.8232 11.9717 26.1113 15.375 31.1982 C18.7862 36.2763 22.5147 36.4697 22.5147 36.4697 L22.5147 36.6787 L22.3604 37.4502 C21.8965 37.4502 21.2657 37.3955 20.5772 37.3955 C19.9288 37.3642 19.3262 37.3261 18.7569 37.2646 L18.7862 36.9404 C18.7862 36.9404 12.9209 35.4345 9.7403 29.8476 C6.6612 24.4443 6.3213 20.8476 3.1495 20.3613 L2.9717 18.7793 C4.5918 18.6025 5.8653 18.1611 6.8702 17.3359 C8.876 15.6836 9.7403 13.415 9.7403 10.4589 C9.7403 7.0009 8.5596 4.7861 6.878 3.5127 C8.8536 3.5586 10.4122 4.6152 10.6055 4.747 Z"
         transform="translate(308.926, 453.895)"
         id="path3701" />
      <path
         style="fill:url(#Grad67); fill-rule:nonzero;stroke:none;"
         d="M6.5683 4.5703 C6.6377 6.8154 6.5683 34.0918 6.5683 34.0918 C6.5683 34.0918 4.7539 29.1992 4.7539 23.4795 L4.7539 7.332 C4.7539 2.6787 4.2451 2.2236 0 1.8222 L0 0 L1.8134 0 C1.8134 0 2.7089 1.0966 4.3222 1.2197 C5.9277 1.3515 6.5068 2.3164 6.5683 4.5703 Z"
         transform="translate(296.701, 453.895)"
         id="path3703" />
      <path
         style="fill:url(#Grad68); fill-rule:nonzero;stroke:none;"
         d="M6.9463 6.4297 C7.0703 9.7099 7.0078 26.3037 6.9463 28.8125 C6.8769 31.3213 5.789 35.4814 5.789 35.4814 L4.9248 29.4228 L4.9248 29.3916 C4.9472 28.3964 4.955 27.3545 4.955 26.2588 L4.955 7.3945 C4.955 2.6172 4.4453 2.2236 0 1.8222 L0 0 L1.1572 0 C1.1572 0 1.4131 0.9033 3.4033 1.0273 C5.4023 1.1582 6.8154 3.1494 6.9463 6.4297 Z"
         transform="translate(277.096, 453.895)"
         id="path3705" />
      <path
         style="fill:url(#Grad69); fill-rule:nonzero;stroke:none;"
         d="M6.9229 4.1836 C6.9922 7.4638 6.9229 33.0586 6.9229 33.0586 C6.9229 33.0586 4.9864 27.0146 4.9864 20.9013 L4.9864 7.3945 C4.9864 2.5625 4.4619 2.2236 0 1.8222 L0 0 L0.8184 0 C0.8184 0 1.3281 0.9648 2.8096 0.9648 C4.292 0.9648 6.8614 0.9033 6.9229 4.1836 Z"
         transform="translate(255.631, 453.895)"
         id="path3707" />
      <path
         style="fill:url(#Grad70); fill-rule:nonzero;stroke:none;"
         d="M5.6426 1.8681 C6.2217 2.7636 6.7305 6.1132 6.669 8.622 C6.6075 11.1298 6.6758 15.4365 6.6758 15.4365 C6.6758 15.4365 4.7618 11.2539 4.7618 9.5166 L4.7618 7.332 C4.7618 2.5625 4.3067 2.2236 0 1.8222 L0 0 L1.2657 0 C1.2657 0 5.0635 0.9648 5.6426 1.8681 Z"
         transform="translate(234.985, 453.895)"
         id="path3709" />
      <path
         style="fill:url(#Grad71); fill-rule:nonzero;stroke:none;"
         d="M15.3052 1.4981 L0 1.4981 L0 0.3868 C0 0.3868 6.3598 0.0782 8.228 0.0391 C10.0952 0 15.3052 1.4981 15.3052 1.4981 Z"
         transform="translate(234.645, 489.338)"
         id="path3711" />
      <path
         style="fill:url(#Grad72); fill-rule:nonzero;stroke:none;"
         d="M0.6015 0 C0.6015 0 3.8125 1.9072 4.0053 2.7871 C3.2881 2.1757 2.0683 2.0078 0 1.8222 L0 0 L0.6015 0 Z"
         transform="translate(211.275, 453.895)"
         id="path3713" />
      <path
         style="fill:url(#Grad73); fill-rule:nonzero;stroke:none;"
         d="M2.7241 0 L3.6582 0.2471 C3.6582 0.2471 3.334 4.0146 0 5.3027 C0.9492 4.1533 1.8599 2.4541 2.7241 0 Z"
         transform="translate(204.861, 480.948)"
         id="path3715" />
      <path
         style="fill:#f5c300; fill-rule:nonzero;stroke:none;"
         d="M26.2197 35.6357 L26.2197 36.9404 L9.4941 36.9404 L9.4941 35.1181 C10.875 35.0039 11.8945 34.8867 12.6338 34.6709 C14.9961 34.2851 15.8916 33.3047 16.0146 31.708 C16.1465 30.1015 16.0849 20.5156 16.0146 19.3584 C15.9531 18.2002 15.1201 17.042 13.4443 17.0263 C11.7705 17.0117 3.8584 17.042 1.7363 17.0263 C1.1963 17.0195 0.6797 17.1113 0.208 17.2519 L0 16.625 C0.9414 16.3486 1.7363 16.0322 1.7363 16.0322 L14.6494 16.0322 L14.6494 10.6211 C14.6494 12.6201 16.0927 15.1816 16.0927 15.1816 C16.0927 15.1816 16.1465 4.4384 16.0927 2.8945 C16.0381 1.3515 13.5761 1.0273 12.1562 1.0273 C10.7441 1.0273 10.2265 0 10.2265 0 L26.2197 0 L26.2197 1.8222 C21.8193 2.2158 21.3174 2.5478 21.2939 6.9463 C19.4961 10.4199 19.8134 16.2089 19.8134 16.2089 C19.8134 16.2089 19.9443 29.9707 20.1367 33.3203 C20.3291 36.6621 26.2197 35.6357 26.2197 35.6357 Z"
         transform="translate(384.504, 453.895)"
         id="path3717" />
      <path
         style="fill:#f5c300; fill-rule:nonzero;stroke:none;"
         d="M16.3242 35.9521 L16.3242 36.9404 L0 36.9404 L0 35.1181 C4.2919 34.7255 4.8085 34.3847 4.8085 29.6084 L4.8085 17.4277 L6.3447 28.5429 C6.3447 28.5429 6.3447 8.622 6.3447 5.2109 C6.3447 1.7988 4.8007 1.2197 3.3261 1.2197 C1.8447 1.2197 0.3623 0 0.3623 0 L16.1464 0 L16.1464 1.8222 C13.1298 2.1074 12.0253 2.3623 11.6464 4.2148 C10.6445 4.8867 10.5673 10.0341 10.5673 10.0341 C10.5673 10.0341 10.08 15.9541 10.8515 16.7871 C11.2773 17.2519 12.6972 16.9648 13.8701 16.625 L14.0781 17.2519 C12.7119 17.6601 11.747 18.4707 11.747 18.4707 L11.747 18.7558 L11.4531 18.7558 L11.4531 21.2568 C11.4531 21.2568 10.6591 22.0595 10.6591 23.3486 C10.6591 24.6367 10.4658 30.6191 10.6591 33.5742 C10.8515 36.5312 16.3242 35.9521 16.3242 35.9521 Z"
         transform="translate(370.634, 453.895)"
         id="path3719" />
      <path
         style="fill:#f5c300; fill-rule:nonzero;stroke:none;"
         d="M36.6006 35.9668 L36.6006 37.7891 L21.6426 37.7891 L21.6426 35.9668 C24.9531 35.458 25.3389 34.833 24.5127 32.4483 C23.9043 30.5723 22.9697 27.9014 21.9746 25.1778 L10.9912 25.1778 C10.5205 26.5196 10.0264 27.9326 9.5557 29.3916 L9.5469 29.3916 C7.6484 32.209 7.4639 34.169 7.6562 35.7285 C7.8496 37.295 10.6894 35.7285 10.6894 35.7285 C11.1221 35.8203 11.624 35.8975 12.2031 35.9668 L12.2031 37.7891 L0 37.7891 L0 37.5274 L0.1855 36.5928 C0.124 36.5772 0.0615 36.5537 0 36.5303 L0 35.9668 C0.9102 35.8526 1.6357 35.7354 2.2383 35.5362 C2.2383 35.5362 5.1475 35.9053 6.7539 32.3018 C8.3662 28.6963 12.7344 16.7334 13.8926 13.3916 C15.0508 10.0489 15.8623 5.0635 15.8623 5.0635 L17.5596 0.6787 L19.9834 0 C21.0635 3.0645 22.1357 6.1592 23.2246 9.2617 L23.2246 9.2774 L23.2246 11.9785 C23.2246 11.9785 28.1103 26.3194 30.2324 31.6612 C32.2852 36.8242 35.21 35.8672 35.3955 35.7979 C35.4033 35.7979 35.4033 35.7979 35.4033 35.7979 C35.7666 35.8672 36.1592 35.9219 36.6006 35.9668 Z M21.0869 22.3907 L20.9932 22.1055 C21.21 18.0918 18.208 9.5938 17.7519 8.9532 C17.3047 8.3125 16.6719 9.3233 16.6719 9.3233 L16.5644 9.3233 C15.6367 11.7627 14.7656 14.2325 13.9004 16.6709 C13.9004 16.6709 12.6113 18.1534 11.8711 19.8203 C11.1367 21.4961 11.8711 22.3907 11.8711 22.3907 L21.0869 22.3907 Z"
         transform="translate(331.441, 453.047)"
         id="path3721" />
      <path
         style="fill:#f5c300; fill-rule:nonzero;stroke:none;"
         d="M2.083 0 L2.0918 0 C1.8447 0.7637 1.6054 1.5362 1.373 2.3145 C0.5713 4.9473 0.6552 5.8203 3.2255 6.3369 C3.2255 6.3369 0.3857 7.9034 0.1923 6.3369 C0 4.7774 0.1845 2.8174 2.083 0 Z"
         transform="translate(338.905, 482.438)"
         id="path3723" />
      <path
         style="fill:#f5c300; fill-rule:nonzero;stroke:none;"
         d="M17.1807 0 L17.1807 1.8222 C13.7002 2.1621 12.8125 2.4922 12.6202 5.4101 L11.795 8.8144 L11.795 35.2109 L11.795 35.2265 C11.0606 38.1132 9.6651 40.5595 7.1104 42.7373 C4.9483 44.6123 2.7334 45.6923 0.7959 46.2021 L0 44.3271 C3.0733 42.9062 4.7793 40.6904 5.3496 37.2255 C5.7276 34.9638 5.8907 32.4179 5.9444 29.4228 L6.8086 35.4814 C6.8086 35.4814 7.8965 31.3213 7.9659 28.8125 C8.0274 26.3037 8.0899 9.7099 7.9659 6.4297 C7.835 3.1494 6.4219 1.1582 4.4229 1.0273 C2.4327 0.9033 2.1768 0 2.1768 0 L17.1807 0 Z"
         transform="translate(276.077, 453.895)"
         id="path3725" />
      <path
         style="fill:#f5c300; fill-rule:nonzero;stroke:none;"
         d="M16.6406 35.1181 L16.6406 36.9404 L0 36.9404 L0 35.1181 C4.4619 34.7255 4.9864 34.3847 4.9864 29.5537 L4.9864 20.9013 C4.9864 27.0146 6.9229 33.0586 6.9229 33.0586 C6.9229 33.0586 6.9922 7.4638 6.9229 4.1836 C6.8614 0.9033 4.292 0.9648 2.8096 0.9648 C1.3281 0.9648 0.8184 0 0.8184 0 L16.6406 0 L16.6406 1.8222 C12.1729 2.2236 11.708 2.5625 11.708 7.3945 L11.708 17.5595 C11.708 17.5595 10.7832 21.288 10.7207 29.7158 C10.6514 38.1445 16.1231 35.0732 16.1231 35.0732 C16.2862 35.0879 16.4629 35.1035 16.6406 35.1181 Z"
         transform="translate(255.631, 453.895)"
         id="path3727" />
      <path
         style="fill:#f5c300; fill-rule:nonzero;stroke:none;"
         d="M16.1709 35.1181 L16.1709 36.9404 L0 36.9404 L0 35.1181 C4.2603 34.7255 4.77 34.3847 4.77 29.6084 L4.77 7.332 C4.77 4.7627 4.6236 3.4814 3.7822 2.7871 C3.5894 1.9072 0.3784 0 0.3784 0 L16.0005 0 L16.0005 1.8222 C11.8023 2.2236 11.3467 2.5625 11.3467 7.332 L11.3467 13.6386 C10.4195 15.499 10.0884 17.2353 13.1753 17.2353 C13.8628 17.2353 14.5337 17.1738 15.1592 17.081 L15.2134 17.4746 C12.3496 17.9062 12.2725 18.7558 12.2725 18.7558 L11.3467 18.7558 L11.3467 26.0498 C11.3467 26.0498 10.0264 30.6191 11.0528 33.706 C12.0791 36.7939 14.395 34.9179 14.395 34.9179 C14.9043 34.9951 15.4907 35.0566 16.1709 35.1181 Z"
         transform="translate(211.498, 453.895)"
         id="path3729" />
      <path
         style="fill:#f5c300; fill-rule:nonzero;stroke:none;"
         d="M28.458 27.2998 L29.4849 27.5625 C29.022 29.7773 27.8721 35.3496 27.3472 36.9404 L0 36.9404 L0 35.1181 C4.9639 34.7255 5.481 34.3847 5.481 29.5537 L5.481 24.375 C5.481 28.5586 7.5025 32.9336 7.5025 32.9336 C7.5025 32.9336 7.5025 5.4658 7.5025 3.7978 C7.5025 2.123 6.4067 1.0966 4.8013 1.0273 C3.188 0.9648 2.4859 0 2.2236 0 L17.1358 0 L17.1358 1.8222 C12.69 2.2236 12.1729 2.5009 12.1729 7.3945 L12.1729 8.1045 C12.1729 8.1045 11.169 12.1572 11.2305 19.6201 C11.2925 27.0761 12.1729 29.7236 12.1729 29.7236 C12.1729 32.5107 12.4033 33.5908 13.561 34.1005 C14.5957 34.5556 16.27 34.6709 18.2935 34.6709 C21.0567 34.6709 23.0781 34.3232 24.4063 32.7959 C24.5371 32.6562 24.6685 32.5175 24.792 32.3554 L24.7998 32.3554 C28.1338 31.0673 28.458 27.2998 28.458 27.2998 Z"
         transform="translate(180.061, 453.895)"
         id="path3731" />
      <path
         style="fill:url(#Grad74); fill-rule:nonzero;stroke:none;"
         d="M7.0381 3.7978 C7.0381 5.4658 7.0381 32.9336 7.0381 32.9336 C7.0381 32.9336 5.0166 28.5586 5.0166 24.375 L5.0166 7.3945 C5.0166 2.5625 4.5522 2.2236 0 1.8222 L0 0 L1.7592 0 C2.0215 0 2.7236 0.9648 4.3369 1.0273 C5.9423 1.0966 7.0381 2.123 7.0381 3.7978 Z"
         transform="translate(180.525, 453.895)"
         id="path3733" />
      <path
         style="fill:url(#Grad75); fill-rule:nonzero;stroke:none;"
         d="M14.247 8.5517 C14.247 8.5517 14.687 10.5126 12.5571 11.0439 C12.9189 10.5273 12.8042 9.7871 12.4018 8.6367 C11.7929 6.7607 10.8427 4.0898 9.8403 1.3662 L1.1948 1.3662 L0 0 L10.5805 0 L14.247 8.5517 Z"
         transform="translate(153.759, 476.858)"
         id="path3735" />
      <path
         style="fill:url(#Grad76); fill-rule:nonzero;stroke:none;"
         d="M4.2915 23.0234 L13.2764 0 C13.1372 2.4609 11.5859 7.0078 10.3594 10.2099 C9.1001 13.4912 5.1177 23.6562 3.7666 26.6738 C2.4702 29.584 0.185 28.6718 0 28.5879 C2.0376 28.0478 2.8022 26.8828 4.2915 23.0234 Z"
         transform="translate(143.399, 460.087)"
         id="path3737" />
      <path
         style="fill:#f5c300; fill-rule:nonzero;stroke:none;"
         d="M13.1045 0 L13.1045 0.8798 C13.1045 0.8798 11.6919 0.6025 10.2344 2.4472 C8.6367 3.1269 7.7256 4.5625 6.1826 8.1357 C5.9199 8.7685 5.5718 9.6093 5.1479 10.6367 C5.1479 10.6367 3.7431 12.6201 2.0986 16.1855 L1.1186 15.7295 L2.6846 12.3418 C5.7886 3.9052 5.5566 3.5195 5.3637 2.1757 C5.1709 0.8339 0 0.9189 0 0.9189 L0 0 L13.1045 0 Z"
         transform="translate(117.104, 453.895)"
         id="path3739" />
      <path
         style="fill:url(#Grad77); fill-rule:nonzero;stroke:none;"
         d="M5.3637 1.3418 C5.5566 2.6856 5.7886 3.0713 2.6846 11.5079 L1.1186 14.8956 L0.6709 15.8536 L0.9482 13.3995 C1.999 10.5665 2.9096 7.9893 3.5727 5.8965 C4.7622 2.254 4.6538 1.5743 0 1.0176 L0 0.085 C0 0.085 5.1709 0 5.3637 1.3418 Z"
         transform="translate(117.104, 454.729)"
         id="path3741" />
      <path
         style="fill:#f5c300; fill-rule:nonzero;stroke:none;"
         d="M26.6508 15.7295 L27.6308 16.1855 C27.3925 16.7021 27.1528 17.2431 26.913 17.8144 C25.0527 22.2441 22.6455 30.4336 22.4824 30.9892 C22.4751 31.0127 22.4751 31.0205 22.4751 31.0205 C21.6806 33.0586 20.9013 35.1035 20.1445 37.0947 L19.7734 37.0947 L18.8706 35.9287 C18.8706 35.9287 14.3017 24.3515 13.2128 21.8818 C12.1171 19.4199 5.2324 2.2851 4.5297 1.4658 C3.8203 0.6484 0.7324 0.9189 0.7324 0.9189 L1.289 2.0146 C0.9033 1.9531 0.4775 1.8994 0 1.8515 L0 0 L13.7919 0 L15.83 0.9189 L15.83 1.8515 C11.746 2.3545 11.6845 2.9179 12.5424 5.3877 C13.2128 7.2402 14.4023 10.3584 15.7441 13.8476 L13.7919 11.6933 L20.6074 28.6357 L21.3325 27.7246 C23.1157 23.1172 24.9458 18.3925 26.4804 14.2334 L26.2031 16.6875 L26.6508 15.7295 Z"
         transform="translate(91.5718, 453.895)"
         id="path3743" />
      <path
         style="fill:url(#Grad78); fill-rule:nonzero;stroke:none;"
         d="M18.1382 35.2803 L19.041 36.4463 L16.9653 36.4463 C13.1137 26.1807 8.0581 13.1592 5.3413 6.4756 C3.8667 2.8018 2.9956 1.791 0.5566 1.3662 L0 0.2705 C0 0.2705 3.0879 0 3.7973 0.8174 C4.5 1.6367 11.3847 18.7715 12.4804 21.2334 C13.5693 23.7031 18.1382 35.2803 18.1382 35.2803 Z"
         transform="translate(92.3042, 454.544)"
         id="path3745" />
      <path
         style="fill:#f5c300; fill-rule:nonzero;stroke:none;"
         d="M32.1617 10.5508 L31.0264 9.0762 C31.0264 9.0762 30.2549 4.7989 28.7808 3.3721 C27.2989 1.9366 19.6421 2.3916 19.6421 2.3916 L22.1207 3.6495 L19.0557 3.6495 L19.0557 21.6026 L18.0982 17.3194 C18.0982 17.3194 18.168 26.21 18.0982 31.5284 C18.0367 36.8457 19.1329 37.2403 19.9048 37.3018 C20.6763 37.3721 24.7281 37.3018 24.7281 37.3018 L24.7281 37.8809 L7.0308 37.8809 L7.0308 36.0909 C11.2139 35.7579 12.2178 35.4258 12.4258 32.501 L13.4673 34.252 L13.4673 2.3916 C13.4673 2.3916 10.5733 2.3916 7.8716 2.3916 C5.1705 2.3916 3.503 3.3721 3.503 3.3721 C4.2056 3.3106 5.981 3.8897 5.981 3.8897 C4.4908 4.1514 3.8892 4.6153 3.4034 5.2784 C2.5459 6.2286 1.9292 8.0264 1.2417 10.7198 L0.5469 9.8555 L0 0 L0.6089 0 C0.6089 0 0.4776 4.337 0.6089 3.1709 C0.7325 1.9991 2.0435 0.8555 2.0435 0.8555 C2.6543 1.3418 3.357 1.4034 4.4756 1.4034 L27.1675 1.4034 C28.6495 1.4034 29.3291 1.0645 30.294 0 L31.5982 0 C31.5982 0.2539 31.5982 0.5313 31.6133 0.8321 L31.6055 0.8321 C31.6055 0.8321 30.0621 0.3321 30.1929 1.6817 C30.3243 3.0401 30.3243 3.0401 30.3243 3.0401 L31.8677 6.4209 C31.9522 7.8409 32.0533 9.2764 32.1617 10.5508 Z"
         transform="translate(57.4804, 452.492)"
         id="path3747" />
      <path
         style="fill:url(#Grad79); fill-rule:nonzero;stroke:none;"
         d="M11.3843 7.1396 L12.5196 8.6142 L10.6519 8.7295 C9.9644 5.9199 9.2847 4.1836 8.3819 3.2265 C7.417 2.1074 6.167 1.7129 2.4786 1.7129 L0 0.455 C0 0.455 7.6568 0 9.1387 1.4355 C10.6128 2.8623 11.3843 7.1396 11.3843 7.1396 Z"
         transform="translate(77.1225, 454.429)"
         id="path3749" />
      <path
         style="fill:url(#Grad80); fill-rule:nonzero;stroke:none;"
         d="M9.9643 0 L9.9643 31.8604 L8.9228 30.1094 C8.9604 29.5772 8.9775 28.9659 8.9775 28.2491 L8.9775 1.2579 L6.4765 1.2579 C4.6704 1.2579 3.3965 1.3428 2.478 1.4981 C2.478 1.4981 0.7026 0.919 0 0.9805 C0 0.9805 1.6675 0 4.3686 0 C7.0703 0 9.9643 0 9.9643 0 Z"
         transform="translate(60.9834, 454.884)"
         id="path3751" />
      <path
         style="fill:url(#Grad81); fill-rule:nonzero;stroke:none;"
         d="M1.2344 9.8555 L1.9292 10.7198 L0 10.7198 C0.232 6.8448 0.5713 2.917 0.6875 0 L1.2344 9.8555 Z"
         transform="translate(56.7929, 452.492)"
         id="path3753" />
    </g>
  </g>
</svg>
